<svg width="624" height="460" viewBox="0 0 624 460" fill="none" xmlns="http://www.w3.org/2000/svg"><rect opacity="0.1" width="162.118" height="162.118" rx="24.3618" transform="matrix(-0.955719 0.29428 0.29428 0.955719 470.623 263)" fill="#58CC02"/><rect opacity="0.1" width="158.901" height="158.901" rx="22.3974" transform="matrix(-0.912409 -0.40928 -0.40928 0.912409 300.148 310.262)" fill="#58CC02"/><rect opacity="0.1" width="99.3871" height="99.3871" rx="14.9351" transform="matrix(-0.954807 -0.297228 -0.297228 0.954807 188.437 152.543)" fill="#58CC02"/><rect opacity="0.1" x="421.541" y="192.508" width="53.2791" height="53.2791" rx="8.00637" transform="rotate(-19.7251 421.541 192.508)" fill="#58CC02"/><rect opacity="0.1" x="222.196" y="229.984" width="53.2791" height="53.2791" rx="8.00637" transform="rotate(-19.7251 222.196 229.984)" fill="#58CC02"/><rect opacity="0.1" x="549.12" y="255.742" width="13.9836" height="13.9836" rx="2.10134" transform="rotate(-17.5055 549.12 255.742)" fill="#58CC02"/><rect opacity="0.1" x="54" y="303.465" width="21.4907" height="21.4907" rx="3.22946" transform="rotate(-17.5055 54 303.465)" fill="#58CC02"/><rect opacity="0.1" x="250" y="109.207" width="13.9836" height="13.9836" rx="2.10134" transform="rotate(-17.5055 250 109.207)" fill="#58CC02"/><rect opacity="0.1" x="337.724" y="92.875" width="13.0639" height="13.0639" rx="2.10134" transform="rotate(-52.1596 337.724 92.875)" fill="#58CC02"/><rect opacity="0.1" x="77.7261" y="264.836" width="8.47721" height="8.47721" rx="1.36357" transform="rotate(-52.1596 77.7261 264.836)" fill="#58CC02"/><rect opacity="0.1" x="568.414" y="294.297" width="8.47721" height="8.47721" rx="1.36357" transform="rotate(-52.1596 568.414 294.297)" fill="#58CC02"/><rect opacity="0.1" x="480.128" y="110.723" width="8.47721" height="8.47721" rx="1.36357" transform="rotate(-108.429 480.128 110.723)" fill="#58CC02"/><rect opacity="0.1" x="296.706" y="413.359" width="8.47721" height="8.47721" rx="1.36357" transform="rotate(-52.1596 296.706 413.359)" fill="#58CC02"/><rect opacity="0.1" x="96.0586" y="96.0352" width="6.34509" height="6.34509" rx="1.02061" transform="rotate(-76.1374 96.0586 96.0352)" fill="#58CC02"/><rect opacity="0.1" x="301.737" y="67.6211" width="6.34509" height="6.34509" rx="1.02061" transform="rotate(-76.1374 301.737 67.6211)" fill="#58CC02"/><rect opacity="0.1" x="341.23" y="136.238" width="80.5933" height="80.5933" rx="12.1109" transform="rotate(42.3331 341.23 136.238)" fill="#58CC02"/><path d="M372 271C372 270.057 372 269.586 372.293 269.293C372.586 269 373.057 269 374 269H386C386.943 269 387.414 269 387.707 269.293C388 269.586 388 270.057 388 271V412C388 415.771 388 417.657 386.828 418.828C385.657 420 383.771 420 380 420C376.229 420 374.343 420 373.172 418.828C372 417.657 372 415.771 372 412V271Z" fill="#D19F6E"/><path opacity="0.3" d="M381 269H385C385.943 269 386.414 269 386.707 269.293C387 269.586 387 270.057 387 271V414C387 415.864 387 416.796 386.696 417.531C386.29 418.511 385.511 419.29 384.531 419.696C383.796 420 382.864 420 381 420V269Z" fill="#765B40"/><path d="M372 271C372 270.057 372 269.586 372.293 269.293C372.586 269 373.057 269 374 269H386C386.943 269 387.414 269 387.707 269.293C388 269.586 388 270.057 388 271V412C388 415.771 388 417.657 386.828 418.828C385.657 420 383.771 420 380 420V420C376.229 420 374.343 420 373.172 418.828C372 417.657 372 415.771 372 412V271Z" stroke="#083156" stroke-width="2"/><path d="M358 262.6C358 262.04 358 261.76 358.109 261.546C358.205 261.358 358.358 261.205 358.546 261.109C358.76 261 359.04 261 359.6 261H401.4C401.96 261 402.24 261 402.454 261.109C402.642 261.205 402.795 261.358 402.891 261.546C403 261.76 403 262.04 403 262.6C403 264.84 403 265.96 402.564 266.816C402.181 267.569 401.569 268.181 400.816 268.564C399.96 269 398.84 269 396.6 269H364.4C362.16 269 361.04 269 360.184 268.564C359.431 268.181 358.819 267.569 358.436 266.816C358 265.96 358 264.84 358 262.6Z" fill="#D19F6E"/><path opacity="0.3" d="M388 261H399C401.209 261 403 262.791 403 265C403 267.209 401.209 269 399 269H388V261Z" fill="#765B40"/><path d="M358 262.6C358 262.04 358 261.76 358.109 261.546C358.205 261.358 358.358 261.205 358.546 261.109C358.76 261 359.04 261 359.6 261H401.4C401.96 261 402.24 261 402.454 261.109C402.642 261.205 402.795 261.358 402.891 261.546C403 261.76 403 262.04 403 262.6V262.6C403 264.84 403 265.96 402.564 266.816C402.181 267.569 401.569 268.181 400.816 268.564C399.96 269 398.84 269 396.6 269H364.4C362.16 269 361.04 269 360.184 268.564C359.431 268.181 358.819 267.569 358.436 266.816C358 265.96 358 264.84 358 262.6V262.6Z" stroke="#083156" stroke-width="2"/><path d="M358 422.4C358 422.96 358 423.24 358.109 423.454C358.205 423.642 358.358 423.795 358.546 423.891C358.76 424 359.04 424 359.6 424H401.4C401.96 424 402.24 424 402.454 423.891C402.642 423.795 402.795 423.642 402.891 423.454C403 423.24 403 422.96 403 422.4C403 420.16 403 419.04 402.564 418.184C402.181 417.431 401.569 416.819 400.816 416.436C399.96 416 398.84 416 396.6 416H364.4C362.16 416 361.04 416 360.184 416.436C359.431 416.819 358.819 417.431 358.436 418.184C358 419.04 358 420.16 358 422.4Z" fill="#D19F6E"/><path opacity="0.3" d="M388 424H399C401.209 424 403 422.209 403 420C403 417.791 401.209 416 399 416H388V424Z" fill="#765B40"/><path d="M358 422.4C358 422.96 358 423.24 358.109 423.454C358.205 423.642 358.358 423.795 358.546 423.891C358.76 424 359.04 424 359.6 424H401.4C401.96 424 402.24 424 402.454 423.891C402.642 423.795 402.795 423.642 402.891 423.454C403 423.24 403 422.96 403 422.4V422.4C403 420.16 403 419.04 402.564 418.184C402.181 417.431 401.569 416.819 400.816 416.436C399.96 416 398.84 416 396.6 416H364.4C362.16 416 361.04 416 360.184 416.436C359.431 416.819 358.819 417.431 358.436 418.184C358 419.04 358 420.16 358 422.4V422.4Z" stroke="#083156" stroke-width="2"/><path d="M338 433C338 433.943 338 434.414 338.293 434.707C338.586 435 339.057 435 340 435H421C421.943 435 422.414 435 422.707 434.707C423 434.414 423 433.943 423 433V432C423 428.229 423 426.343 421.828 425.172C420.657 424 418.771 424 415 424H346C342.229 424 340.343 424 339.172 425.172C338 426.343 338 428.229 338 432V433Z" fill="#D19F6E"/><path opacity="0.3" d="M398 435H417.5C418.896 435 419.593 435 420.161 434.828C421.44 434.44 422.44 433.44 422.828 432.161C423 431.593 423 430.896 423 429.5C423 428.104 423 427.407 422.828 426.839C422.44 425.56 421.44 424.56 420.161 424.172C419.593 424 418.896 424 417.5 424H398V435Z" fill="#765B40"/><path d="M338 433C338 433.943 338 434.414 338.293 434.707C338.586 435 339.057 435 340 435H421C421.943 435 422.414 435 422.707 434.707C423 434.414 423 433.943 423 433V432C423 428.229 423 426.343 421.828 425.172C420.657 424 418.771 424 415 424H346C342.229 424 340.343 424 339.172 425.172C338 426.343 338 428.229 338 432V433Z" stroke="#083156" stroke-width="2"/><rect x="309" y="195" width="145" height="66" rx="4" fill="#D19F6E"/><path opacity="0.3" d="M419 195H446C449.771 195 451.657 195 452.828 196.172C454 197.343 454 199.229 454 203V253C454 256.771 454 258.657 452.828 259.828C451.657 261 449.771 261 446 261H419V195Z" fill="#765B40"/><rect x="309" y="195" width="145" height="66" rx="4" stroke="#083156" stroke-width="2"/><rect opacity="0.15" x="349.014" y="256.891" width="49" height="8" rx="2" fill="#083156"/><rect opacity="0.15" x="361.014" y="419.891" width="49" height="7" rx="2" fill="#083156"/><rect opacity="0.15" x="356.014" y="429.891" width="72" height="6" rx="2" fill="#083156"/><rect opacity="0.15" x="367.014" y="267.891" width="19" height="8" rx="2" fill="#083156"/><path d="M319 201C319 197.229 319 195.343 320.172 194.172C321.343 193 323.229 193 327 193H403C404.886 193 405.828 193 406.414 193.586C407 194.172 407 195.114 407 197V241C407 244.771 407 246.657 405.828 247.828C404.657 249 402.771 249 399 249H327C323.229 249 321.343 249 320.172 247.828C319 246.657 319 244.771 319 241V201Z" fill="#FFFAED"/><path opacity="0.45" d="M329 238C329 234.229 329 232.343 330.172 231.172C331.343 230 333.229 230 337 230H403C404.886 230 405.828 230 406.414 230.586C407 231.172 407 232.114 407 234V241C407 244.771 407 246.657 405.828 247.828C404.657 249 402.771 249 399 249H337C333.229 249 331.343 249 330.172 247.828C329 246.657 329 244.771 329 241V238Z" fill="#FFD9AB"/><path d="M319 201C319 197.229 319 195.343 320.172 194.172C321.343 193 323.229 193 327 193H403C404.886 193 405.828 193 406.414 193.586C407 194.172 407 195.114 407 197V241C407 244.771 407 246.657 405.828 247.828C404.657 249 402.771 249 399 249H327C323.229 249 321.343 249 320.172 247.828C319 246.657 319 244.771 319 241V201Z" stroke="#083156" stroke-width="2"/><rect opacity="0.15" x="324.014" y="245.891" width="79" height="8" rx="2" fill="#083156"/><path opacity="0.7" fill-rule="evenodd" clip-rule="evenodd" d="M372.181 235.056L373.204 232.371C373.27 232.197 373.373 232.04 373.504 231.908C373.635 231.776 373.793 231.673 373.967 231.606L376.654 230.584C377.22 230.368 377.695 229.964 377.998 229.439C378.301 228.914 378.414 228.301 378.317 227.703L377.863 224.867C377.834 224.684 377.844 224.496 377.892 224.317C377.94 224.138 378.025 223.971 378.142 223.826L379.955 221.598C380.338 221.129 380.547 220.542 380.547 219.936C380.547 219.33 380.338 218.743 379.955 218.274L378.142 216.046C378.025 215.901 377.94 215.734 377.892 215.555C377.844 215.376 377.834 215.188 377.863 215.005L378.315 212.172C378.411 211.573 378.299 210.96 377.996 210.436C377.693 209.911 377.218 209.506 376.651 209.291L373.964 208.266C373.791 208.199 373.634 208.097 373.502 207.967C373.371 207.836 373.268 207.679 373.201 207.506L372.178 204.822C371.963 204.255 371.558 203.78 371.033 203.477C370.507 203.175 369.893 203.062 369.294 203.159L366.456 203.613C366.273 203.644 366.086 203.636 365.907 203.591C365.728 203.545 365.56 203.462 365.414 203.348L363.184 201.537C362.714 201.154 362.127 200.945 361.521 200.945C360.914 200.945 360.327 201.154 359.857 201.537L357.627 203.348C357.482 203.462 357.314 203.545 357.134 203.591C356.955 203.636 356.768 203.644 356.585 203.613L353.749 203.159C353.151 203.062 352.537 203.175 352.011 203.477C351.486 203.78 351.081 204.255 350.866 204.822L349.84 207.506C349.774 207.679 349.673 207.837 349.542 207.967C349.411 208.098 349.253 208.2 349.08 208.266L346.393 209.291C345.826 209.506 345.351 209.91 345.048 210.435C344.745 210.96 344.632 211.573 344.729 212.172L345.17 215.008C345.201 215.19 345.193 215.377 345.148 215.556C345.102 215.735 345.019 215.903 344.905 216.049L343.092 218.276C342.709 218.746 342.5 219.333 342.5 219.939C342.5 220.544 342.709 221.131 343.092 221.601L344.918 223.829C345.032 223.974 345.115 224.142 345.161 224.321C345.207 224.5 345.214 224.687 345.184 224.87L344.729 227.706C344.632 228.304 344.745 228.917 345.048 229.442C345.351 229.967 345.826 230.371 346.393 230.587L349.08 231.609C349.253 231.676 349.41 231.779 349.541 231.91C349.672 232.041 349.774 232.198 349.84 232.371L350.863 235.056C351.079 235.622 351.484 236.096 352.009 236.399C352.534 236.702 353.148 236.815 353.747 236.718L356.585 236.264C356.769 236.235 356.957 236.244 357.137 236.293C357.317 236.341 357.485 236.426 357.63 236.543L359.86 238.354C360.33 238.736 360.917 238.945 361.523 238.945C362.129 238.945 362.717 238.736 363.187 238.354L365.417 236.543C365.561 236.426 365.729 236.341 365.908 236.293C366.088 236.245 366.275 236.235 366.459 236.264L369.297 236.718C369.896 236.815 370.51 236.702 371.035 236.399C371.56 236.096 371.965 235.622 372.181 235.056ZM369.004 222.316C369.453 220.681 369.317 218.94 368.621 217.394C369.489 216.345 370.012 215.053 370.116 213.696C370.221 212.339 369.903 210.982 369.205 209.813C369.135 209.696 369.038 209.598 368.922 209.526C368.807 209.454 368.675 209.41 368.54 209.398C368.404 209.387 368.267 209.407 368.141 209.459C368.014 209.51 367.902 209.59 367.813 209.693L365.362 212.511L363.579 209.972C363.346 209.639 363.034 209.368 362.67 209.185C362.307 209.002 361.904 208.912 361.497 208.923C361.09 208.934 360.692 209.045 360.339 209.247C359.986 209.449 359.688 209.736 359.473 210.081C358.406 211.802 357.584 212.864 357.006 213.267C356.429 213.671 355.13 214.088 353.11 214.518C352.713 214.603 352.343 214.786 352.034 215.048C351.724 215.311 351.484 215.646 351.336 216.024C351.187 216.402 351.134 216.81 351.182 217.213C351.229 217.616 351.376 218.001 351.609 218.334L353.403 220.891L349.871 222.256C349.743 222.305 349.629 222.383 349.538 222.484C349.447 222.585 349.381 222.707 349.346 222.838C349.311 222.97 349.307 223.108 349.335 223.241C349.364 223.374 349.423 223.499 349.509 223.605C350.377 224.666 351.554 225.43 352.877 225.792C354.199 226.154 355.602 226.096 356.89 225.626C358.109 226.805 359.702 227.523 361.394 227.656C363.086 227.789 364.771 227.328 366.16 226.354C367.549 225.379 368.554 223.951 369.004 222.316ZM360.395 229.216L362.29 229.481L362.277 229.479C362.596 229.523 362.885 229.692 363.079 229.949C363.273 230.206 363.358 230.53 363.313 230.849C363.269 231.168 363.099 231.456 362.842 231.65C362.585 231.845 362.261 231.929 361.942 231.884L360.047 231.619C359.728 231.573 359.44 231.402 359.248 231.144C359.055 230.886 358.972 230.562 359.018 230.243C359.065 229.925 359.236 229.637 359.494 229.445C359.752 229.252 360.076 229.17 360.395 229.216ZM371.335 221.152C371.605 220.978 371.934 220.917 372.249 220.984V220.992C372.565 221.06 372.841 221.251 373.016 221.522C373.191 221.793 373.252 222.123 373.184 222.439L372.788 224.298C372.76 224.458 372.699 224.611 372.61 224.747C372.522 224.883 372.407 225 372.272 225.091C372.137 225.182 371.985 225.245 371.825 225.276C371.666 225.308 371.501 225.306 371.342 225.273C371.183 225.239 371.032 225.174 370.899 225.082C370.765 224.989 370.652 224.87 370.565 224.733C370.478 224.595 370.42 224.442 370.394 224.281C370.367 224.121 370.374 223.957 370.412 223.799L370.808 221.916C370.876 221.602 371.065 221.327 371.335 221.152Z" fill="#FFAA00"/><path d="M167.608 429.835C167.608 426.938 169.956 424.59 172.853 424.59H201.042C203.939 424.59 206.287 426.938 206.287 429.835C206.287 432.731 203.939 435.079 201.042 435.079H172.853C169.956 435.079 167.608 432.731 167.608 429.835Z" fill="#FFE999" stroke="#083156" stroke-width="2"/><path d="M138.452 429.835C138.452 426.938 140.8 424.59 143.696 424.59H168.886C171.782 424.59 174.13 426.938 174.13 429.835C174.13 432.731 171.782 435.079 168.886 435.079H143.696C140.8 435.079 138.452 432.731 138.452 429.835Z" fill="#FFE999" stroke="#083156" stroke-width="2"/><path d="M167.358 313.165C167.358 305.465 177.337 299.223 189.647 299.223C201.957 299.223 211.937 305.465 211.937 313.165V345.232C211.937 352.932 201.957 359.174 189.647 359.174C177.337 359.174 167.358 352.932 167.358 345.232V313.165Z" fill="#083156"/><path d="M125.448 308.53C125.448 287.233 139.019 275.328 153.249 275.328H187.415C201.644 275.328 212.216 286.849 212.216 308.53C212.216 326.218 201.644 340.557 187.415 340.557H153.249C139.019 340.557 125.448 326.218 125.448 308.53Z" fill="#083156"/><path d="M131.596 313.165C131.596 305.465 140.369 299.223 151.192 299.223C162.014 299.223 170.787 305.465 170.787 313.165V345.232C170.787 352.932 162.014 359.174 151.192 359.174C140.369 359.174 131.596 352.932 131.596 345.232V313.165Z" fill="#083156"/><path d="M144.842 265.605H196.301V276.893H144.842V265.605Z" fill="#3C5D87"/><path d="M172.487 339.58C172.487 328.758 181.319 319.984 192.213 319.984C203.108 319.984 211.94 328.758 211.94 339.58V408.02C211.94 411.886 208.806 415.02 204.94 415.02H179.487C175.621 415.02 172.487 411.886 172.487 408.02V339.58Z" fill="#083156"/><path d="M129 315.851C129 301.574 139.298 290 152 290C164.703 290 175 301.574 175 315.851V408C175 411.866 171.866 415 168 415H136C132.134 415 129 411.866 129 408V315.851Z" fill="#083156"/><path d="M176.319 335.094V404.887" stroke="#031F39" stroke-width="2" stroke-linecap="round"/><path d="M133.991 334.094V403.887" stroke="white" stroke-width="2" stroke-linecap="round"/><path d="M160.987 266.188H166.376V277.005H160.987V266.188Z" fill="#083156"/><path d="M182.35 266.148H187.888V277.224H182.35V266.148Z" fill="#083156"/><path d="M228.537 241.474C228.475 241.508 228.412 241.541 228.349 241.574L204.006 254.231C198.214 257.242 190.605 255.421 187.011 250.164C183.416 244.907 185.197 238.205 190.989 235.194L215.143 222.636C215.205 222.602 215.267 222.569 215.33 222.536L239.472 209.984C239.539 209.948 239.606 209.913 239.673 209.877L255.777 201.505C261.569 198.493 269.178 200.314 272.772 205.571C276.367 210.828 274.586 217.53 268.794 220.541L252.892 228.809C252.825 228.845 252.758 228.881 252.691 228.916L228.537 241.474Z" fill="#9A755E"/><path d="M228.535 241.474C228.473 241.508 228.41 241.541 228.347 241.574L204.004 254.231C198.212 257.242 190.603 255.421 187.009 250.164C183.414 244.907 185.195 238.205 190.987 235.194L215.141 222.636C215.203 222.602 215.265 222.569 215.328 222.536L239.47 209.984C239.537 209.948 239.604 209.913 239.671 209.877L255.776 201.505C261.567 198.493 269.176 200.314 272.77 205.571C276.365 210.828 274.584 217.53 268.792 220.541L252.89 228.809C252.823 228.845 252.756 228.881 252.689 228.916L228.535 241.474Z" stroke="#083156" stroke-width="2"/><rect x="263.492" y="181.496" width="10" height="27" rx="5" fill="#9A755E" stroke="#083156" stroke-width="2"/><path fill-rule="evenodd" clip-rule="evenodd" d="M246.877 187.619C243.732 187.269 241.278 184.592 241.27 181.348C241.261 177.872 244.064 175.061 247.53 175.07L264.332 175.112C267.798 175.121 270.614 177.945 270.623 181.421C270.631 184.665 268.191 187.33 265.048 187.664L265.088 204.105L288.439 233.806C292.032 238.376 291.265 244.985 286.725 248.565C284.881 250.021 282.598 250.809 280.245 250.803L231.688 250.682C225.898 250.667 221.193 245.949 221.179 240.143C221.173 237.81 221.941 235.545 223.362 233.705L246.916 203.209L246.877 187.619Z" fill="#FFE999"/><path fill-rule="evenodd" clip-rule="evenodd" d="M246.877 187.619C243.732 187.269 241.278 184.592 241.27 181.348C241.261 177.872 244.064 175.061 247.53 175.07L264.332 175.112C267.798 175.121 270.614 177.945 270.623 181.421C270.631 184.665 268.191 187.33 265.048 187.664L265.088 204.105L288.439 233.806C292.032 238.376 291.265 244.985 286.725 248.565C284.881 250.021 282.598 250.809 280.245 250.803L231.688 250.682C225.898 250.667 221.193 245.949 221.179 240.143C221.173 237.81 221.941 235.545 223.362 233.705L246.916 203.209L246.877 187.619Z" fill="#FFC247" fill-opacity="0.5"/><path opacity="0.7" fill-rule="evenodd" clip-rule="evenodd" d="M242.91 217.891L228.325 236.774C227.58 237.739 227.176 238.929 227.179 240.156C227.187 243.214 229.661 245.675 232.676 245.682L280.233 245.804C281.461 245.807 282.653 245.396 283.617 244.635C285.995 242.759 286.403 239.286 284.515 236.885L269.582 217.891H242.91Z" fill="#FFAA00"/><path opacity="0.7" fill-rule="evenodd" clip-rule="evenodd" d="M272.607 213.656L248.365 237.897C246.999 239.264 244.783 239.264 243.416 237.897C242.049 236.53 242.049 234.314 243.416 232.948L268.25 208.113L272.607 213.656Z" fill="white"/><path opacity="0.7" fill-rule="evenodd" clip-rule="evenodd" d="M276.902 219.116L261.891 234.128C261.11 234.909 259.843 234.909 259.062 234.128C258.281 233.346 258.281 232.08 259.062 231.299L274.412 215.949L276.902 219.116Z" fill="white"/><path d="M248.915 188.393L248.915 204.212L225.362 234.708C223.941 236.548 223.173 238.812 223.179 241.145C223.187 244.64 224.895 247.741 227.517 249.659M265.578 176.934L248.777 176.892C245.311 176.884 242.508 179.695 242.517 183.17C242.519 184.145 242.81 185.068 243.302 185.893" stroke="white" stroke-width="2" stroke-linecap="round"/><path fill-rule="evenodd" clip-rule="evenodd" d="M246.877 187.619C243.732 187.269 241.278 184.592 241.27 181.348C241.261 177.872 244.064 175.061 247.53 175.07L264.332 175.112C267.798 175.121 270.614 177.945 270.623 181.421C270.631 184.665 268.191 187.33 265.048 187.664L265.088 204.105L288.439 233.806C292.032 238.376 291.265 244.985 286.725 248.565C284.881 250.021 282.598 250.809 280.245 250.803L231.688 250.682C225.898 250.667 221.193 245.949 221.179 240.143C221.173 237.81 221.941 235.545 223.362 233.705L246.916 203.209L246.877 187.619Z" stroke="#083156" stroke-width="2"/><path d="M247.017 187.641H256.517" stroke="#083156" stroke-width="2" stroke-linecap="round"/><rect opacity="0.15" x="245.017" y="182.891" width="25" height="9" rx="3" fill="#083156"/><rect opacity="0.15" x="237.017" y="242.891" width="47" height="9" rx="4" fill="#083156"/><rect x="226.017" y="250.891" width="60" height="24" rx="4" fill="#D19F6E"/><rect x="222.017" y="264.891" width="68" height="10" rx="4" fill="#D19F6E"/><path d="M223.997 273.893V269.597C223.997 268.977 223.997 268.667 224.065 268.412C224.25 267.722 224.789 267.183 225.479 266.998C225.734 266.93 226.044 266.93 226.664 266.93V266.93C226.974 266.93 227.129 266.93 227.256 266.896C227.601 266.803 227.871 266.534 227.963 266.189C227.997 266.062 227.997 265.907 227.997 265.597V256.892C227.997 255.006 227.997 254.064 228.583 253.478C229.168 252.892 230.111 252.892 231.995 252.892C242.852 252.889 272.566 252.883 279.997 252.883" stroke="white" stroke-width="2" stroke-linecap="round"/><path d="M227.188 252.062L226.481 251.355L226.481 251.355L227.188 252.062ZM226.017 264.938L226.084 265.935L227.017 265.872V264.938H226.017ZM224.017 265.427L223.517 264.56L223.517 264.56L224.017 265.427ZM222.552 266.891L221.686 266.391H221.686L222.552 266.891ZM222.285 273.891L223.151 273.391H223.151L222.285 273.891ZM223.017 274.623L223.517 273.757L223.517 273.757L223.017 274.623ZM289.017 274.623L288.517 273.757L288.517 273.757L289.017 274.623ZM289.749 273.891L288.883 273.391L288.883 273.391L289.749 273.891ZM289.481 266.891L290.347 266.391V266.391L289.481 266.891ZM288.017 265.427L287.517 266.293V266.293L288.017 265.427ZM286.017 264.938H285.017V265.872L285.949 265.935L286.017 264.938ZM227.017 258.891C227.017 256.977 227.019 255.642 227.154 254.635C227.286 253.656 227.526 253.138 227.895 252.769L226.481 251.355C225.679 252.158 225.333 253.168 225.172 254.368C225.014 255.54 225.017 257.033 225.017 258.891H227.017ZM227.017 264.938V258.891H225.017V264.938H227.017ZM224.517 266.293C224.836 266.108 225.269 265.99 226.084 265.935L225.949 263.94C225.022 264.003 224.228 264.15 223.517 264.56L224.517 266.293ZM223.419 267.391C223.682 266.935 224.061 266.556 224.517 266.293L223.517 264.56C222.757 264.999 222.125 265.631 221.686 266.391L223.419 267.391ZM223.017 271.557C223.017 270.293 223.018 269.411 223.08 268.728C223.14 268.058 223.253 267.677 223.419 267.391L221.686 266.391C221.316 267.032 221.161 267.739 221.088 268.547C221.016 269.342 221.017 270.33 221.017 271.557H223.017ZM223.151 273.391C223.119 273.336 223.073 273.227 223.046 272.927C223.018 272.613 223.017 272.199 223.017 271.557H221.017C221.017 272.162 221.016 272.682 221.054 273.107C221.094 273.546 221.182 273.981 221.419 274.391L223.151 273.391ZM223.517 273.757C223.365 273.669 223.238 273.543 223.151 273.391L221.419 274.391C221.682 274.847 222.061 275.225 222.517 275.489L223.517 273.757ZM225.35 273.891C224.708 273.891 224.294 273.89 223.98 273.861C223.68 273.834 223.571 273.788 223.517 273.757L222.517 275.489C222.926 275.725 223.361 275.813 223.8 275.853C224.225 275.892 224.745 275.891 225.35 275.891V273.891ZM234.017 273.891H225.35V275.891H234.017V273.891ZM278.017 273.891H234.017V275.891H278.017V273.891ZM286.683 273.891H278.017V275.891H286.683V273.891ZM288.517 273.757C288.462 273.788 288.353 273.834 288.053 273.861C287.739 273.89 287.325 273.891 286.683 273.891V275.891C287.288 275.891 287.808 275.892 288.233 275.853C288.672 275.813 289.107 275.725 289.517 275.489L288.517 273.757ZM288.883 273.391C288.795 273.543 288.669 273.669 288.517 273.757L289.517 275.489C289.973 275.225 290.351 274.847 290.615 274.391L288.883 273.391ZM289.017 271.557C289.017 272.199 289.016 272.613 288.987 272.927C288.96 273.227 288.914 273.336 288.883 273.391L290.615 274.391C290.851 273.981 290.939 273.546 290.979 273.107C291.018 272.682 291.017 272.162 291.017 271.557H289.017ZM288.615 267.391C288.78 267.677 288.893 268.058 288.954 268.728C289.016 269.411 289.017 270.293 289.017 271.557H291.017C291.017 270.33 291.018 269.342 290.946 268.547C290.872 267.739 290.717 267.032 290.347 266.391L288.615 267.391ZM287.517 266.293C287.973 266.556 288.351 266.935 288.615 267.391L290.347 266.391C289.908 265.631 289.277 264.999 288.517 264.56L287.517 266.293ZM285.949 265.935C286.764 265.99 287.197 266.108 287.517 266.293L288.517 264.56C287.805 264.15 287.011 264.003 286.084 263.94L285.949 265.935ZM285.017 258.891V264.938H287.017V258.891H285.017ZM284.138 252.769C284.507 253.138 284.748 253.656 284.879 254.635C285.014 255.642 285.017 256.977 285.017 258.891H287.017C287.017 257.033 287.019 255.54 286.861 254.368C286.7 253.168 286.355 252.158 285.552 251.355L284.138 252.769ZM278.017 251.891C279.93 251.891 281.265 251.893 282.272 252.028C283.251 252.16 283.769 252.4 284.138 252.769L285.552 251.355C284.75 250.553 283.739 250.207 282.539 250.046C281.368 249.889 279.874 249.891 278.017 249.891V251.891ZM234.017 251.891H278.017V249.891H234.017V251.891ZM227.895 252.769C228.264 252.4 228.782 252.16 229.761 252.028C230.768 251.893 232.103 251.891 234.017 251.891V249.891C232.159 249.891 230.666 249.889 229.494 250.046C228.294 250.207 227.284 250.553 226.481 251.355L227.895 252.769Z" fill="#083156"/><path d="M256.017 264.891H228.683C226.191 264.891 224.945 264.891 224.017 265.427C223.409 265.778 222.904 266.283 222.552 266.891C222.017 267.819 222.017 269.065 222.017 271.557V271.557C222.017 272.803 222.017 273.427 222.285 273.891C222.46 274.195 222.713 274.447 223.017 274.623C223.481 274.891 224.104 274.891 225.35 274.891H286.683C287.929 274.891 288.553 274.891 289.017 274.623C289.321 274.447 289.573 274.195 289.749 273.891C290.017 273.427 290.017 272.803 290.017 271.557V271.557C290.017 269.065 290.017 267.819 289.481 266.891C289.13 266.283 288.625 265.778 288.017 265.427C287.088 264.891 285.842 264.891 283.35 264.891H281.017" stroke="#083156" stroke-width="2" stroke-linecap="round"/><rect opacity="0.15" x="232.017" y="258.891" width="58" height="9" rx="4" fill="#083156"/><ellipse cx="11.2008" cy="14.8175" rx="11.2008" ry="14.8175" transform="matrix(0.960809 -0.277211 -0.277211 -0.960809 260.104 219.5)" fill="#9A755E" stroke="#083156" stroke-width="2"/><path opacity="0.2" d="M256.997 206.263C259.265 214.126 265.923 219.11 271.866 217.395" stroke="#083156" stroke-width="9" stroke-linecap="round"/><ellipse cx="9" cy="10" rx="9" ry="10" transform="matrix(-4.21468e-08 1 1 4.21468e-08 208.003 269)" fill="#9A755E"/><path d="M193.207 265.148H197.442L197.428 278.596H193.194L193.207 265.148Z" fill="#083156"/><path d="M144.21 265.148H149.442L149.425 278.596H144.194L144.21 265.148Z" fill="#083156"/><path d="M190.239 216.812H148.598V230.893C140.394 235.644 134.875 244.517 134.875 254.68C134.875 260.64 139.707 265.471 145.667 265.471H193.054C199.014 265.471 203.845 260.64 203.845 254.68C203.845 244.566 198.378 235.728 190.239 230.96V216.812Z" fill="#FFE999"/><rect opacity="0.4" x="161.208" y="248.559" width="41.8167" height="15.942" rx="5" fill="#FFAA00"/><path d="M150.394 217.719L150.406 230.237C150.408 231.466 149.65 232.552 148.57 233.137C138.043 238.837 129.886 256.133 140.932 261.877" stroke="white" stroke-width="3" stroke-linecap="round"/><path d="M190.239 216.812H148.598V230.893C140.394 235.644 134.875 244.517 134.875 254.68C134.875 260.64 139.707 265.471 145.667 265.471H193.054C199.014 265.471 203.845 260.64 203.845 254.68C203.845 244.566 198.378 235.728 190.239 230.96V216.812Z" stroke="#083156" stroke-width="2"/><path d="M110.46 98.0541C121.984 126.23 150.059 141.409 173.167 131.957C196.276 122.506 205.668 92.004 194.145 63.8286C182.621 35.6532 154.546 20.4741 131.438 29.9253C108.329 39.3764 98.9371 69.8787 110.46 98.0541Z" fill="#083156"/><path d="M101.125 134.642C123.832 145.101 149.194 138.483 157.772 119.86C166.351 101.236 154.898 77.6597 132.191 67.2002C109.484 56.7408 84.1224 63.3591 75.5438 81.9826C66.9652 100.606 78.4184 124.183 101.125 134.642Z" fill="#083156"/><path d="M230.402 100.35C223.292 124.318 201.593 139.02 181.935 133.189C162.278 127.358 152.105 103.201 159.215 79.2333C166.325 55.2656 188.024 40.563 207.682 46.3942C227.339 52.2254 237.512 76.3822 230.402 100.35Z" fill="#083156"/><path d="M112.664 170.103L113.676 169.981L113.534 168.971L112.104 158.82C110.588 148.054 118.086 138.098 128.852 136.581L195.577 127.183C206.343 125.667 216.3 133.165 217.816 143.931L219.246 154.081L219.388 155.089L220.393 154.929C220.459 154.919 220.526 154.909 220.593 154.899C226.791 154.026 232.524 158.343 233.397 164.542C234.27 170.74 229.953 176.473 223.754 177.346C223.687 177.355 223.621 177.364 223.554 177.372L222.544 177.497L222.686 178.504L225.001 194.944C226.797 207.689 217.92 219.477 205.174 221.272L145.618 229.661C132.873 231.456 121.085 222.579 119.29 209.833L116.974 193.393L116.832 192.384L115.825 192.546C115.751 192.557 115.677 192.569 115.603 192.579C109.405 193.452 103.672 189.135 102.799 182.937C101.926 176.738 106.243 171.006 112.441 170.133C112.516 170.122 112.59 170.112 112.664 170.103Z" fill="#9A755E" stroke="#083156" stroke-width="2"/><path d="M180.196 203.584C179.325 200.97 176.5 199.556 173.886 200.427C171.272 201.298 169.859 204.123 170.729 206.737C171.6 209.351 174.425 210.764 177.039 209.894C179.653 209.023 181.067 206.198 180.196 203.584Z" fill="#083156"/><path d="M168.36 154.965C161.874 154.445 152.282 156.153 145.992 164.428" stroke="#083156" stroke-width="2" stroke-linecap="round"/><path d="M209.903 157.125C206.573 154.515 200.762 151.998 194.382 154.226" stroke="#083156" stroke-width="2" stroke-linecap="round"/><path d="M100.862 134.566L113.502 169.502L184.463 134.492L219.502 154.002L220.568 118.053L100.862 134.566Z" fill="#FFE999"/><rect opacity="0.4" x="118.743" y="153.441" width="53.4222" height="12.7402" rx="3" transform="rotate(-26.4847 118.743 153.441)" fill="#FFAA00"/><rect opacity="0.15" x="129.411" y="160.535" width="59.7381" height="8.42832" rx="3" transform="rotate(-26.2969 129.411 160.535)" fill="#083156"/><path d="M103.002 135.004L115.502 168.004" stroke="white" stroke-width="3" stroke-linecap="round"/><path d="M100.862 134.566L100.725 133.576L99.501 133.745L99.9215 134.907L100.862 134.566ZM113.502 169.502L112.562 169.842C112.659 170.11 112.865 170.323 113.129 170.43C113.393 170.536 113.69 170.525 113.945 170.399L113.502 169.502ZM184.463 134.492L184.968 133.629L184.504 133.357L184.021 133.596L184.463 134.492ZM219.502 155.002L218.997 155.865C219.302 156.043 219.678 156.048 219.987 155.877C220.296 155.705 220.492 155.384 220.502 155.031L219.502 155.002ZM220.568 118.053L221.568 118.082L221.602 116.901L220.431 117.063L220.568 118.053ZM114.443 169.162L101.802 134.226L99.9215 134.907L112.562 169.842L114.443 169.162ZM184.021 133.596L113.06 168.605L113.945 170.399L184.906 135.389L184.021 133.596ZM183.958 135.355L218.997 155.865L220.008 154.139L184.968 133.629L183.958 135.355ZM220.502 155.031L221.568 118.082L219.569 118.024L218.503 154.973L220.502 155.031ZM100.998 135.557L220.705 119.044L220.431 117.063L100.725 133.576L100.998 135.557Z" fill="#083156"/><path d="M187.446 118.642C181.006 100.601 161.614 90.9029 143.468 96.2781C142.409 96.5918 141.867 97.7421 142.238 98.7824L144.97 106.435C151.635 125.109 172.176 134.844 190.85 128.179L187.446 118.642Z" fill="#FFE999"/><path d="M201.704 104.174C203.571 116.918 194.753 128.762 182.01 130.629L181.056 124.121C179.287 112.043 187.114 100.774 198.785 98.0392C199.86 97.7872 200.88 98.5518 201.041 99.6447L201.704 104.174Z" fill="#FFE999"/><path d="M198.595 161.655C191.736 162.801 187.106 169.29 188.252 176.149L189.545 183.885C189.545 183.885 197.892 184.309 204.204 181.098C207.582 179.38 210.979 178.27 214.054 177.771L213.089 171.998C211.943 165.139 204.204 160.717 198.595 161.655Z" fill="white"/><path d="M198.386 188.714C198.73 191.152 196.694 193.455 193.84 193.857C190.985 194.259 188.393 192.608 188.049 190.17C187.706 187.732 187.424 185.069 190.278 184.667C193.133 184.265 197.995 185.907 198.386 188.714Z" fill="#9A755E"/><path d="M213.222 177.567C213.492 157.503 184.227 154.848 188.83 183.151" stroke="#083156" stroke-width="2" stroke-linecap="round"/><path d="M160.891 166.619C167.89 165.477 174.491 170.225 175.633 177.225L176.633 183.408C176.97 185.487 175.112 187.253 173.035 186.905C164.418 185.462 159.148 185.924 151.246 187.254L150.284 181.361C149.142 174.361 153.891 167.761 160.891 166.619Z" fill="white"/><path d="M150.797 187.049C147.623 176.492 154.132 168.083 161.502 166.725C167.982 165.531 179.002 168.5 175.502 186.5" stroke="#083156" stroke-width="2" stroke-linecap="round"/><path fill-rule="evenodd" clip-rule="evenodd" d="M157.255 186.377C157.013 185.977 156.794 185.556 156.6 185.117C154.158 179.574 156.671 173.101 162.214 170.658C166.204 168.9 170.675 169.71 173.779 172.368C174.696 173.8 175.342 175.438 175.633 177.223L176.844 184.707C176.477 185.639 175.984 186.521 175.375 187.325C172.126 186.699 169.355 186.318 166.802 186.139C166.853 185.67 166.785 185.182 166.581 184.719C165.96 183.31 164.316 182.672 162.908 183.292C161.795 183.783 161.163 184.913 161.253 186.06C159.928 186.116 158.611 186.224 157.255 186.377ZM158.762 176.411C158.868 179.054 162.236 181.065 166.285 180.903C170.333 180.74 173.529 178.466 173.423 175.823C173.317 173.18 169.949 171.169 165.901 171.331C161.852 171.493 158.656 173.768 158.762 176.411Z" fill="#083156"/><path fill-rule="evenodd" clip-rule="evenodd" d="M209.135 179.013C210.262 178.631 211.371 178.32 212.45 178.08C212.591 177.316 212.648 176.525 212.614 175.716C212.368 169.881 207.438 165.35 201.603 165.597C195.768 165.843 191.237 170.773 191.483 176.608C191.601 179.388 192.781 181.872 194.616 183.684C197.475 183.382 201.087 182.683 204.204 181.097C204.234 181.082 204.265 181.066 204.295 181.051C204.009 180.644 203.832 180.154 203.81 179.62C203.747 178.137 204.898 176.885 206.381 176.822C207.734 176.765 208.895 177.719 209.135 179.013ZM207.038 169.104C208.071 171.436 206.013 174.609 202.442 176.192C198.87 177.775 195.137 177.168 194.103 174.836C193.07 172.504 195.128 169.331 198.7 167.748C202.271 166.165 206.004 166.772 207.038 169.104Z" fill="#083156"/><path d="M201.182 188.298C200.547 184.409 196.334 182.412 189.004 183.508L194.706 196.989C200.892 195.162 201.601 190.434 201.182 188.298Z" fill="#9A755E"/><path d="M189.004 183.508C196.334 182.412 200.547 184.409 201.182 188.298C201.601 190.434 200.892 195.162 194.706 196.989" stroke="#083156" stroke-width="2" stroke-linecap="round"/><rect opacity="0.19" x="151.401" y="225.109" width="41.8167" height="9.55809" rx="2" transform="rotate(-8.1961 151.401 225.109)" fill="#083156"/><path d="M128.229 247.328C130.706 240.706 138.105 237.373 144.706 239.905L223.975 270.316C231.79 273.315 232.442 284.12 225.044 288.037C220.867 290.248 215.966 290.649 211.485 289.145L136.1 263.85C129.275 261.56 125.707 254.07 128.229 247.328Z" fill="#9A755E"/><path d="M215.883 275.506C216.283 275.179 216.785 275 217.303 275H250.493C252.283 275 253.866 276.163 254.4 277.872C255.253 280.601 253.532 283.463 250.722 283.99L222.301 289.319C214.298 290.82 209.575 280.655 215.883 275.506Z" fill="#9A755E"/><rect x="228.635" y="258.211" width="10" height="27" rx="5" transform="rotate(37 228.635 258.211)" fill="#9A755E"/><path d="M234.502 275C230.102 275 230.668 272.333 231.502 271L226.502 269V279H234.502C234.502 277.833 234.502 275.4 234.502 275Z" fill="#9A755E"/><path d="M214.002 266.5C218.502 268 221.002 269 223.502 265L229.002 266.5L225.489 276.996H217.489C217.489 275.829 214.002 266.9 214.002 266.5Z" fill="#9A755E"/><path d="M144.679 239.965L144.316 240.897L144.679 239.965ZM128.212 247.333L127.275 246.983L128.212 247.333ZM214.583 267.191L214.22 268.122L214.247 268.133L214.274 268.142L214.583 267.191ZM222.348 266.531L223.077 267.217L223.114 267.177L223.147 267.133L222.348 266.531ZM223.501 265.002L224.3 265.603L224.327 265.568L224.35 265.53L223.501 265.002ZM223.503 264.999L223.768 264.035L223.049 263.837L222.654 264.471L223.503 264.999ZM223.503 264.999L223.237 265.963L223.892 266.144L224.301 265.601L223.503 264.999ZM225.613 262.2L224.814 261.598V261.598L225.613 262.2ZM232.615 261.216L233.217 260.417L232.615 261.216ZM233.599 268.218L234.398 268.82V268.82L233.599 268.218ZM231.418 271.112L230.62 270.51L230.583 270.558L230.553 270.61L231.418 271.112ZM234.39 274.995L234.381 275.995H234.39L234.39 274.995ZM250.475 274.995L250.475 275.995L250.475 274.995ZM254.388 277.872L255.342 277.574L254.388 277.872ZM250.715 283.997L250.902 284.979L250.715 283.997ZM231.289 287.685L231.102 286.703L231.093 286.705L231.289 287.685ZM231.289 287.685L231.475 288.668L231.485 288.666L231.289 287.685ZM223.238 289.017L223.147 288.021H223.147L223.238 289.017ZM209.998 288.127L209.775 289.101L209.998 288.127ZM202.198 285.73L202.514 284.781L202.503 284.778L202.492 284.774L202.198 285.73ZM202.198 285.73L201.879 286.678L201.891 286.682L201.904 286.686L202.198 285.73ZM202.196 285.729L202.515 284.781L202.512 284.78L202.196 285.729ZM196.058 283.65L196.392 282.707L196.364 282.697L196.335 282.689L196.058 283.65ZM191.587 282.216L191.271 283.164L191.272 283.165L191.587 282.216ZM191.587 282.216L191.903 281.267L191.902 281.267L191.587 282.216ZM136.09 263.8L136.405 262.851L136.09 263.8ZM145.042 239.033C137.939 236.267 129.946 239.844 127.275 246.983L129.149 247.684C131.428 241.589 138.252 238.535 144.316 240.897L145.042 239.033ZM214.946 266.259L145.042 239.033L144.316 240.897L214.22 268.122L214.946 266.259ZM214.274 268.142C216.007 268.704 217.587 269.138 219.03 269.099C220.556 269.057 221.878 268.49 223.077 267.217L221.62 265.846C220.773 266.745 219.951 267.073 218.975 267.1C217.916 267.129 216.636 266.806 214.892 266.239L214.274 268.142ZM222.703 264.4L221.55 265.93L223.147 267.133L224.3 265.603L222.703 264.4ZM224.35 265.53C224.349 265.532 224.349 265.533 224.349 265.532C224.349 265.532 224.35 265.53 224.351 265.528L222.654 264.471C222.655 264.469 222.655 264.468 222.655 264.469C222.655 264.469 222.654 264.471 222.652 264.473L224.35 265.53ZM223.237 265.963L223.237 265.963L223.769 264.035L223.768 264.035L223.237 265.963ZM224.814 261.598L222.704 264.398L224.301 265.601L226.411 262.801L224.814 261.598ZM233.217 260.417C230.57 258.423 226.808 258.951 224.814 261.598L226.411 262.801C227.741 261.037 230.249 260.685 232.013 262.014L233.217 260.417ZM234.398 268.82C236.392 266.173 235.863 262.411 233.217 260.417L232.013 262.014C233.777 263.344 234.13 265.852 232.8 267.616L234.398 268.82ZM232.217 271.713L234.398 268.82L232.8 267.616L230.62 270.51L232.217 271.713ZM234.399 273.995C232.458 273.977 232.064 273.401 231.974 273.175C231.828 272.812 231.942 272.203 232.283 271.613L230.553 270.61C230.11 271.376 229.624 272.689 230.117 273.92C230.666 275.287 232.152 275.975 234.381 275.995L234.399 273.995ZM250.475 273.995L234.39 273.995L234.39 275.995L250.475 275.995L250.475 273.995ZM255.342 277.574C254.677 275.445 252.706 273.995 250.475 273.995L250.475 275.995C251.831 275.995 253.029 276.876 253.433 278.17L255.342 277.574ZM250.902 284.979C254.298 284.334 256.373 280.873 255.342 277.574L253.433 278.17C254.108 280.329 252.75 282.593 250.529 283.014L250.902 284.979ZM231.475 288.668L250.902 284.979L250.529 283.014L231.102 286.703L231.475 288.668ZM231.485 288.666L231.485 288.666L231.093 286.705L231.093 286.705L231.485 288.666ZM223.329 290.012C225.4 289.822 227.467 289.429 231.475 288.668L231.102 286.703C227.058 287.471 225.099 287.842 223.147 288.021L223.329 290.012ZM209.775 289.101C214.216 290.121 218.791 290.429 223.329 290.012L223.147 288.021C218.82 288.418 214.457 288.125 210.222 287.152L209.775 289.101ZM201.882 286.679C205.752 287.969 207.748 288.636 209.775 289.101L210.222 287.152C208.311 286.713 206.42 286.084 202.514 284.781L201.882 286.679ZM201.904 286.686L201.904 286.686L202.492 284.774L202.492 284.774L201.904 286.686ZM201.876 286.677L201.879 286.678L202.517 284.782L202.515 284.781L201.876 286.677ZM195.724 284.592C197.326 285.16 199.369 285.841 201.879 286.678L202.512 284.78C199.995 283.941 197.973 283.267 196.392 282.707L195.724 284.592ZM191.272 283.165C193.198 283.804 194.607 284.272 195.78 284.61L196.335 282.689C195.209 282.364 193.843 281.911 191.902 281.267L191.272 283.165ZM191.271 283.164L191.271 283.164L191.903 281.267L191.903 281.267L191.271 283.164ZM135.775 264.749L191.272 283.165L191.902 281.267L136.405 262.851L135.775 264.749ZM127.275 246.983C124.559 254.244 128.417 262.308 135.775 264.749L136.405 262.851C130.123 260.766 126.83 253.882 129.149 247.684L127.275 246.983Z" fill="#083156"/><path opacity="0.16" fill-rule="evenodd" clip-rule="evenodd" d="M234.057 272.999H247.503C249.436 272.999 251.003 274.566 251.003 276.499C251.003 278.432 249.436 279.999 247.503 279.999H228.503C226.653 279.999 225.138 278.563 225.011 276.745C224.782 275.87 224.95 274.903 225.55 274.136L231.095 267.046C232.116 265.741 234.001 265.511 235.306 266.532C236.611 267.552 236.842 269.438 235.821 270.743L234.057 272.999Z" fill="#083156"/><path fill-rule="evenodd" clip-rule="evenodd" d="M433.327 430.645C433.414 428.361 435.081 426.955 438.333 426.868C440.632 427.002 441.648 426.845 442.217 426.498C444.767 424.944 443.159 419.391 447.714 419.927C454.495 420.454 452.478 431.111 447.908 433.896C445.452 435.393 440.487 434.921 438.32 434.795C436.574 434.693 433.15 434.335 433.327 430.645Z" fill="#FFC367" stroke="#083156" stroke-width="2" stroke-linecap="round"/><path fill-rule="evenodd" clip-rule="evenodd" d="M470.071 421.734C468.895 419.323 469.894 416.442 472.306 415.265C472.982 414.942 473.717 414.766 474.423 414.766C476.216 414.766 477.922 415.765 478.774 417.471L482.097 424.41C483.273 426.821 482.273 429.702 479.862 430.879C477.451 432.055 474.57 431.055 473.393 428.644L470.071 421.734Z" fill="#FFC367" stroke="#083156" stroke-width="2"/><path d="M465.275 270.738C478.418 273.954 505.678 261.233 518.261 269.478" stroke="white" stroke-width="2.72882" stroke-linecap="round"/><path d="M438.734 253.727C445.149 254.988 447.513 258.833 450.963 263.677" stroke="white" stroke-width="3.27458" stroke-linecap="round"/><path d="M407.809 351.121C412.404 382.753 434.184 400.578 459.583 402.483" stroke="white" stroke-width="3.27458" stroke-linecap="round"/><path d="M404.26 319.796C407.914 301.868 412.842 249.276 436.157 252.11C450.806 253.719 450.21 267.392 461.475 269.645C478.228 272.95 495.657 262.517 512.003 265.861C522.834 268.074 529.804 280.9 527.59 291.73L518.384 336.375L542.896 384.593C545.297 389.302 542.425 394.906 537.245 395.753C523.971 397.861 510.657 395.236 499.341 388.832C492.156 395.267 483.248 399.964 473.156 402.111C472.944 402.158 472.72 402.205 472.496 402.252C472.273 402.299 472.049 402.346 471.837 402.394C442.358 407.903 410.479 394.026 404.922 364.5C402.517 351.838 401.619 332.672 404.26 319.796Z" fill="#7BB48B"/><path d="M364.575 309.071C373.976 301.833 412.75 307.313 423.122 324.173C429.431 334.754 434.56 357.839 404.608 365.533C366.571 361.433 355.176 316.308 364.575 309.071Z" fill="#7BB48B"/><path d="M423.073 324.338C412.7 307.478 372.155 300.149 364.526 309.236C355.746 319.693 365.703 360.24 404.559 365.698" stroke="#083156" stroke-width="2" stroke-linecap="round"/><path d="M430.829 265.222C428.663 267.476 427.234 270.113 426.628 272.779L424.661 269.601C424.379 269.13 423.908 268.895 423.437 268.895C422.919 268.895 422.307 269.13 421.836 269.648C419.812 271.755 418.431 274.197 417.765 276.684C414.448 279.211 412.009 282.926 411.142 287.356L406.763 310.006C404.926 319.519 411.142 328.796 420.702 330.632C430.261 332.516 439.491 326.253 441.327 316.693L441.358 316.534L453.914 318.968C453.994 329.33 461.376 338.552 471.94 340.615L473.729 340.945C485.784 343.299 497.51 335.435 499.817 323.333L502.454 309.818C504.126 301.257 500.621 292.886 494.131 287.909C494.354 285.692 494.112 283.417 493.363 281.233C493.081 280.338 492.233 279.82 491.386 279.82C490.915 279.82 490.491 279.962 490.114 280.244L485.41 283.785C486.125 280.891 486.032 277.801 485.028 274.876C484.746 273.981 484.087 273.51 483.38 273.51C482.956 273.51 482.533 273.652 482.156 273.934L463.563 287.645C463.427 287.718 463.284 287.81 463.134 287.92C457.012 292.441 448.959 289.945 445.616 284.482C445.456 284.223 445.297 283.981 445.139 283.757C445.114 283.699 445.084 283.643 445.05 283.588L433.654 265.175C433.372 264.704 432.901 264.469 432.43 264.469C431.912 264.469 431.3 264.704 430.829 265.222Z" fill="#ACD3A2"/><path d="M422.589 260.5C413.588 275 408.5 300 403.5 337" stroke="white" stroke-width="2" stroke-linecap="round"/><path d="M404.26 319.796C407.914 301.868 412.842 249.276 436.158 252.11C450.806 253.719 450.21 267.392 461.476 269.645C478.228 272.95 495.657 262.517 512.004 265.861C522.835 268.074 529.804 280.9 527.591 291.73L518.385 336.375L542.896 384.593C545.298 389.302 542.425 394.906 537.245 395.753C523.972 397.861 510.658 395.236 499.341 388.832C492.156 395.267 483.248 399.964 473.156 402.111C472.944 402.158 472.72 402.205 472.497 402.252C472.273 402.299 472.049 402.346 471.837 402.394C442.359 407.903 409.817 392.026 404.261 362.5C401.856 349.838 401.619 332.672 404.26 319.796Z" stroke="#083156" stroke-width="2"/><path fill-rule="evenodd" clip-rule="evenodd" d="M445.995 345.987C446.644 345.37 447.672 345.396 448.289 346.046L451.225 349.135C452.165 350.123 453.622 350.419 454.872 349.876L459.461 347.881C460.283 347.523 461.239 347.9 461.596 348.722C461.953 349.544 461.577 350.5 460.755 350.858L456.167 352.852C453.665 353.94 450.751 353.348 448.872 351.371L445.936 348.282C445.319 347.632 445.345 346.605 445.995 345.987Z" fill="#ACD3A2"/><path fill-rule="evenodd" clip-rule="evenodd" d="M426.811 342.956C427.461 342.338 428.488 342.365 429.106 343.014L432.042 346.104C432.981 347.092 434.438 347.388 435.689 346.844L440.277 344.85C441.099 344.492 442.055 344.869 442.413 345.691C442.77 346.513 442.393 347.469 441.571 347.826L436.983 349.821C434.482 350.909 431.568 350.317 429.689 348.34L426.753 345.25C426.135 344.601 426.161 343.573 426.811 342.956Z" fill="#ACD3A2"/><path fill-rule="evenodd" clip-rule="evenodd" d="M434.243 355.706C434.892 355.088 435.92 355.115 436.537 355.764L439.473 358.854C440.413 359.842 441.87 360.138 443.12 359.594L447.709 357.6C448.531 357.242 449.487 357.619 449.844 358.441C450.202 359.263 449.825 360.219 449.003 360.576L444.415 362.571C441.913 363.659 438.999 363.067 437.12 361.09L434.184 358C433.567 357.351 433.593 356.323 434.243 355.706Z" fill="#ACD3A2"/><path d="M489.499 307.292C490.646 314.538 485.081 320.546 476.877 320.546C466.779 320.546 462.446 316.61 461.299 309.364C460.152 302.119 467.51 293.761 473.721 292.777C484.098 291.135 488.237 298.457 489.499 307.292Z" fill="white"/><path d="M439.937 296.737C439.964 306.197 435.013 311.504 427.039 309.766C417.914 306.707 417.421 302.471 417.093 298.551C415.978 291.043 422.035 282.536 427.616 281.593C433.198 280.651 438.823 289.229 439.937 296.737Z" fill="white"/><path d="M427.376 292.834C427.237 299.685 424.447 301.369 421.288 299.873C418.129 298.376 417.132 293.409 419.061 288.777C420.991 284.145 425.116 281.604 428.275 283.1C431.434 284.596 430.773 288.891 427.376 292.834Z" fill="#083156"/><path d="M474.169 302.91C474.015 309.087 470.961 311.309 467.635 309.869C464.31 308.429 463.219 303.555 465.199 298.983C467.178 294.41 471.479 291.87 474.805 293.31C478.13 294.75 477.727 298.892 474.169 302.91Z" fill="#083156"/><path d="M456.638 320.234C457.122 315.965 453.108 311.238 448.839 310.754C444.81 310.298 440.015 313.013 439.237 316.992L436.889 329.005C435.962 333.745 440.368 338.267 445.167 338.811C449.707 339.325 454.128 335.763 454.608 332.027L456.638 320.234Z" fill="#FFC367"/><path d="M452.844 319.685C453.495 316.429 451.221 313.314 447.922 312.94C444.994 312.608 442.3 314.575 441.723 317.464L439.415 329.025C438.765 332.281 441.038 335.397 444.337 335.77C447.265 336.102 449.959 334.135 450.536 331.246L452.844 319.685Z" fill="#FA811B"/><path opacity="0.35" d="M452.844 319.685C453.495 316.429 451.221 313.314 447.922 312.94C444.994 312.608 442.3 314.575 441.723 317.464L439.415 329.025C438.765 332.281 441.038 335.397 444.337 335.77C447.265 336.102 449.959 334.135 450.536 331.246L452.844 319.685Z" fill="#A65D14"/><path d="M435 317.049C434.896 317.336 435.021 317.651 435.286 317.803L439.102 319.991L456.031 320.022C456.41 320.023 456.711 319.7 456.659 319.324C455.967 314.374 452.004 310.324 446.808 309.736C441.549 309.141 436.728 312.283 435 317.049Z" fill="#FFC367"/><path opacity="0.4" d="M439.615 315.853C440.694 314.299 442.838 313.357 444.467 313.528" stroke="white" stroke-width="2" stroke-linecap="round"/><path d="M435 317.051L435.705 317.306L435.705 317.306L435 317.051ZM435.286 317.804L435.659 317.154L435.659 317.154L435.286 317.804ZM453.854 313.345L453.298 313.849L453.311 313.863L453.325 313.877L453.854 313.345ZM456.639 320.235L457.378 320.362L457.382 320.341L457.384 320.32L456.639 320.235ZM454.609 332.029L453.87 331.901L453.867 331.917L453.865 331.933L454.609 332.029ZM436.889 329.006L436.153 328.862L436.889 329.006ZM438.697 319.759L439.433 319.903L439.536 319.376L439.07 319.109L438.697 319.759ZM434.295 316.795C434.06 317.444 434.351 318.133 434.913 318.455L435.659 317.154C435.692 317.173 435.733 317.23 435.705 317.306L434.295 316.795ZM446.893 308.992C441.281 308.357 436.139 311.71 434.295 316.795L435.705 317.306C437.318 312.859 441.818 309.927 446.724 310.483L446.893 308.992ZM454.41 312.841C452.524 310.762 449.901 309.333 446.893 308.992L446.724 310.483C449.357 310.781 451.648 312.03 453.298 313.849L454.41 312.841ZM457.384 320.32C457.693 317.591 456.365 314.787 454.383 312.814L453.325 313.877C455.082 315.626 456.137 318.001 455.894 320.151L457.384 320.32ZM455.348 332.156L457.378 320.362L455.9 320.108L453.87 331.901L455.348 332.156ZM445.083 339.557C447.572 339.839 449.999 339.003 451.859 337.615C453.711 336.233 455.08 334.242 455.353 332.124L453.865 331.933C453.657 333.551 452.575 335.209 450.962 336.413C449.356 337.611 447.303 338.299 445.252 338.067L445.083 339.557ZM436.153 328.862C435.635 331.512 436.617 334.057 438.32 335.98C440.02 337.9 442.487 339.263 445.083 339.557L445.252 338.067C443.049 337.817 440.914 336.647 439.443 334.986C437.974 333.327 437.217 331.24 437.625 329.15L436.153 328.862ZM437.961 319.616L436.153 328.862L437.625 329.15L439.433 319.903L437.961 319.616ZM434.913 318.455L438.324 320.41L439.07 319.109L435.659 317.154L434.913 318.455Z" fill="#083156"/><path d="M439.101 319.99L449.5 320.01L451.584 320.013C452.202 320.015 452.671 320.571 452.568 321.18L451.5 327.498C450.5 333.498 449 335.498 444 334.998" stroke="#083156" stroke-width="1.5" stroke-linecap="round"/><path opacity="0.2" d="M436.813 334.887C438.403 337.455 441.462 339.393 444.674 339.757C448.171 340.153 451.588 338.41 453.391 336" stroke="#083156" stroke-width="6" stroke-linecap="round"/><path opacity="0.15" d="M484.288 395.661C479.043 398.928 473.124 401.286 466.7 402.485C446.497 406.259 426.777 397.547 415.23 381.723" stroke="#3C5D87" stroke-width="15.3866" stroke-linecap="round"/><path d="M439.098 308.5C442.098 288 435.225 282 428.598 282C421.97 282 416.598 290.283 416.598 300.5" stroke="#083156" stroke-width="2" stroke-linecap="round"/><path d="M461.098 310C463.098 298.5 468.127 292 476.181 292C483.898 292 491.889 297.508 489.338 316" stroke="#083156" stroke-width="2" stroke-linecap="round"/><path d="M586.381 435H582.645M53.4104 435H58.7468M577.309 435H561.833M557.03 435H66.7515" stroke="#083156" stroke-width="2" stroke-linecap="round"/><path opacity="0.2" d="M437 321L439 322H451" stroke="#083156" stroke-width="4" stroke-linecap="round"/><path opacity="0.11" d="M402 312.5C400 319.333 397.2 339 402 363" stroke="#083156" stroke-width="11" stroke-linecap="round"/></svg>