<svg width="580" height="460" viewBox="0 0 580 460" fill="none" xmlns="http://www.w3.org/2000/svg"><rect opacity="0.1" x="161.236" y="195.109" width="167.016" height="167.016" rx="25.0978" transform="rotate(17.1144 161.236 195.109)" fill="#FF9600"/><rect opacity="0.1" x="314.914" y="168.352" width="95.9384" height="95.9384" rx="17.2503" transform="rotate(-15.5914 314.914 168.352)" fill="#FF9600"/><rect opacity="0.1" x="379.158" y="277.211" width="57.4478" height="57.4478" rx="12" transform="rotate(21.0164 379.158 277.211)" fill="#FF9600"/><rect opacity="0.1" x="75" y="149.344" width="12.4137" height="12.4137" rx="3.80588" transform="rotate(-10.8847 75 149.344)" fill="#FF9600"/><rect opacity="0.1" x="495.918" y="141" width="12.7185" height="12.7185" rx="4.26032" transform="rotate(38.5077 495.918 141)" fill="#FF9600"/><rect opacity="0.1" x="156.998" y="29.5" width="12.7185" height="12.7185" rx="4.26032" transform="rotate(79.2683 156.998 29.5)" fill="#FF9600"/><rect opacity="0.1" x="447.555" y="211" width="12.7185" height="12.7185" rx="4.26032" transform="rotate(80.8166 447.555 211)" fill="#FF9600"/><rect opacity="0.1" x="496.555" y="406" width="22.7185" height="22.7185" rx="4.26032" transform="rotate(80.8166 496.555 406)" fill="#FF9600"/><rect opacity="0.1" x="69.3555" y="317" width="20.501" height="20.501" rx="4.94492" transform="rotate(24.0509 69.3555 317)" fill="#FF9600"/><rect opacity="0.1" x="391.592" y="399" width="12.7185" height="12.7185" rx="4.26032" transform="rotate(65.7066 391.592 399)" fill="#FF9600"/><path opacity="0.12" d="M14.5 238C33.5 238 19.5 299 42 299C64.5 299 54.5 201 78.5 201C102.5 201 86.5 265.5 107.5 265.5C128.5 265.5 118.5 224 137.5 224C153.5 224 143.5 273.5 163.5 273.5C183.5 273.5 176 168.5 198.5 168.5C221 168.5 204 253.5 226.5 253.5C244.5 253.5 236.5 179 252 179" stroke="#FF9600" stroke-width="2" stroke-linecap="round"/><g opacity="0.12"><path d="M340.057 35.5442C341.714 35.0366 343.509 35.6536 344.504 37.0725L376.712 83.0126C377.706 84.4316 377.674 86.3297 376.632 87.7143L342.893 132.542C341.851 133.927 340.036 134.483 338.397 133.919L285.338 115.684C283.699 115.121 282.609 113.567 282.638 111.834L283.585 55.7364C283.614 54.0037 284.755 52.487 286.412 51.9793L340.057 35.5442Z" stroke="#FF9600" stroke-width="2"/><path d="M333.733 57.568C334.562 57.3142 335.46 57.6227 335.957 58.3321L353.815 83.8039C354.312 84.5134 354.296 85.4624 353.775 86.1547L335.068 111.01C334.547 111.702 333.64 111.98 332.82 111.698L303.401 101.588C302.582 101.306 302.037 100.529 302.051 99.6627L302.576 68.5591C302.591 67.6927 303.162 66.9344 303.99 66.6805L333.733 57.568Z" stroke="#FF9600" stroke-width="1.5"/><path d="M326.803 81.3445L345.786 26.1094" stroke="#FF9600" stroke-width="2" stroke-linecap="round"/><path d="M326.806 81.3449L275.714 120.318" stroke="#FF9600" stroke-width="2" stroke-linecap="round"/><path d="M326.803 81.3424L276.715 47.4492" stroke="#FF9600" stroke-width="2" stroke-linecap="round"/><path d="M326.407 81.2055L386.977 85.8906" stroke="#FF9600" stroke-width="2" stroke-linecap="round"/><path d="M326.804 81.3422L342.656 143.32" stroke="#FF9600" stroke-width="2" stroke-linecap="round"/></g><path opacity="0.16" d="M252 162.5L101.5 12H25" stroke="#FF9600" stroke-width="2" stroke-linecap="round"/><g opacity="0.16"><circle cx="167" cy="367" r="72" stroke="#FF9600" stroke-width="2.5"/><circle cx="167" cy="367" r="52" stroke="#FF9600" stroke-width="2.5"/><circle cx="167" cy="367" r="32" stroke="#FF9600" stroke-width="2.5"/><circle cx="167" cy="367" r="12" stroke="#FF9600" stroke-width="2.5"/></g><path fill-rule="evenodd" clip-rule="evenodd" d="M290 26C207.051 26 137.641 84.0512 120.216 161.751C119.249 166.062 114.97 168.773 110.659 167.806C106.348 166.839 103.637 162.561 104.604 158.249C123.632 73.4021 199.403 10 290 10C380.598 10 456.369 73.4021 475.397 158.249C476.364 162.561 473.652 166.839 469.341 167.806C465.03 168.773 460.751 166.062 459.785 161.751C442.359 84.0512 372.95 26 290 26Z" fill="#FEF6F0"/><path d="M290 10V26" stroke="#FFD9AB" stroke-width="2"/><path d="M155.5 65.75L167 77.25" stroke="#FFD9AB" stroke-width="2"/><path d="M413 77.25L424.5 65.75" stroke="#FFD9AB" stroke-width="2"/><path fill-rule="evenodd" clip-rule="evenodd" d="M290 26C207.051 26 137.641 84.0512 120.216 161.751C119.249 166.062 114.97 168.773 110.659 167.806C106.348 166.839 103.637 162.561 104.604 158.249C123.632 73.4021 199.403 10 290 10C380.598 10 456.369 73.4021 475.397 158.249C476.364 162.561 473.652 166.839 469.341 167.806C465.03 168.773 460.751 166.062 459.785 161.751C442.359 84.0512 372.95 26 290 26Z" stroke="#FFD9AB" stroke-width="2.5" stroke-linecap="round"/><path opacity="0.5" d="M112.41 160C130.637 78.7266 203.227 18 290.001 18C315.768 18 340.286 23.3551 362.5 33.013" stroke="#FFD9AB" stroke-width="16" stroke-linecap="round"/><path opacity="0.1" d="M473.169 148C450.225 68.8714 376.904 11 290.001 11C203.097 11 129.777 68.8714 106.832 148" stroke="#FA811B" stroke-width="12" stroke-linecap="round"/><g opacity="0.16"><path d="M560.5 32.25L527.5 15.75M521 17L487 51M480 53L448 45M441.6 47L406.4 85" stroke="#FF9600" stroke-width="2" stroke-linecap="round"/><circle cx="404" cy="88" r="4" stroke="#FF9600" stroke-width="2.5"/><circle cx="444" cy="44" r="4" stroke="#FF9600" stroke-width="2.5"/><circle cx="484" cy="54" r="4" stroke="#FF9600" stroke-width="2.5"/><circle cx="524" cy="14" r="4" stroke="#FF9600" stroke-width="2.5"/><circle cx="564" cy="34" r="4" stroke="#FF9600" stroke-width="2.5"/></g><g opacity="0.16"><path d="M440.5 296.5V316.5" stroke="#FF9600" stroke-width="2.5" stroke-linecap="round"/><path d="M452.5 276.5V336.5" stroke="#FF9600" stroke-width="2.5" stroke-linecap="round"/><path d="M464.5 286.5V326.5" stroke="#FF9600" stroke-width="2.5" stroke-linecap="round"/><path d="M476.5 266.5V346.5" stroke="#FF9600" stroke-width="2.5" stroke-linecap="round"/><path d="M488.5 256.5V356.5" stroke="#FF9600" stroke-width="2.5" stroke-linecap="round"/><path d="M500.5 246.5V366.5" stroke="#FF9600" stroke-width="2.5" stroke-linecap="round"/><path d="M512.5 266.5V346.5" stroke="#FF9600" stroke-width="2.5" stroke-linecap="round"/><path d="M524.5 286.5V326.5" stroke="#FF9600" stroke-width="2.5" stroke-linecap="round"/><path d="M536.5 276.5V336.5" stroke="#FF9600" stroke-width="2.5" stroke-linecap="round"/><path d="M548.5 296.5V316.5" stroke="#FF9600" stroke-width="2.5" stroke-linecap="round"/></g><rect x="383" y="417" width="90" height="28" rx="4" fill="#C5CEDB" stroke="#083156" stroke-width="2.5"/><rect x="383" y="403" width="86" height="14" rx="4" fill="#FFD9AB" stroke="#083156" stroke-width="2.5"/><rect x="509.588" y="435.008" width="9.59781" height="51.4923" transform="rotate(90 509.588 435.008)" fill="white"/><rect x="509.588" y="435.008" width="9.59781" height="51.4923" transform="rotate(90 509.588 435.008)" fill="#FFC800" fill-opacity="0.7"/><rect x="509.588" y="435.008" width="9.59781" height="51.4923" transform="rotate(90 509.588 435.008)" stroke="#083156" stroke-width="2" stroke-linejoin="round"/><rect opacity="0.12" x="486.371" y="441.68" width="7.98023" height="36.0892" rx="3" transform="rotate(90 486.371 441.68)" fill="#083156"/><rect width="9.59781" height="4.79891" transform="matrix(0 1 1 0 453.296 435.008)" fill="white" stroke="#083156" stroke-width="2" stroke-linejoin="round"/><path d="M450.898 435.008C448.247 435.008 446.099 437.156 446.099 439.807C446.099 442.457 448.247 444.606 450.898 444.606H453.297V435.008H450.898Z" fill="#FFD9AB" stroke="#083156" stroke-width="2" stroke-linejoin="round"/><path d="M509.588 439.812H458.096" stroke="#083156" stroke-width="2"/><path d="M520.514 438.864C521.403 439.178 521.403 440.436 520.514 440.75L509.589 444.606V435.008L520.514 438.864Z" fill="#FFD9AB" stroke="#083156" stroke-width="2" stroke-linejoin="round"/><path d="M520.339 438.859C521.251 439.163 521.251 440.453 520.339 440.756L517.762 441.616V438L520.339 438.859Z" fill="#083156" stroke="#083156" stroke-width="2" stroke-linejoin="round"/><rect opacity="0.12" x="461" y="412" width="11" height="71" rx="3" transform="rotate(90 461 412)" fill="#083156"/><rect opacity="0.12" x="431" y="439" width="11" height="71" rx="3" transform="rotate(90 431 439)" fill="#083156"/><path fill-rule="evenodd" clip-rule="evenodd" d="M454.782 349.471C456.801 348.484 458.629 347.016 460.082 345.093C464.953 338.65 463.767 329.545 457.433 324.756C451.099 319.968 442.015 321.31 437.144 327.753C436.316 328.849 435.663 330.021 435.181 331.236C431.662 331.194 428.147 332.789 425.838 335.844C425.776 335.926 425.715 336.009 425.656 336.092C421.763 330.359 414.553 328.105 408.772 331.088C403.758 333.675 401.332 339.419 402.352 345.135C399.036 345.578 395.759 347.265 393.271 350.108C388.182 355.922 388.325 364.37 393.589 368.977C398.853 373.584 407.246 372.605 412.334 366.79C414.321 364.519 415.511 361.846 415.909 359.157C420.059 360.689 424.698 359.797 427.56 356.527C428.471 355.486 429.119 354.298 429.513 353.036C431.181 355.249 433.605 357.183 436.58 358.476C443.897 361.656 451.776 359.753 454.179 354.225C454.834 352.717 455.014 351.096 454.782 349.471Z" fill="white"/><path d="M460.082 345.093L459.285 344.49H459.285L460.082 345.093ZM454.782 349.471L453.792 349.613C453.731 349.183 453.953 348.763 454.343 348.573L454.782 349.471ZM457.433 324.756L456.83 325.554L457.433 324.756ZM437.144 327.753L437.942 328.356V328.356L437.144 327.753ZM435.181 331.236L436.11 331.605C435.957 331.99 435.583 332.241 435.169 332.236L435.181 331.236ZM425.838 335.844L426.635 336.448L426.635 336.448L425.838 335.844ZM425.656 336.092L426.469 336.674C426.278 336.94 425.97 337.096 425.643 337.092C425.316 337.088 425.012 336.924 424.828 336.654L425.656 336.092ZM408.772 331.088L408.313 330.199L408.772 331.088ZM402.352 345.135L403.336 344.959C403.384 345.227 403.32 345.504 403.159 345.724C402.999 345.945 402.755 346.09 402.484 346.126L402.352 345.135ZM393.271 350.108L392.518 349.449L393.271 350.108ZM393.589 368.977L394.248 368.224L393.589 368.977ZM412.334 366.79L413.086 367.449L412.334 366.79ZM415.909 359.157L414.92 359.01C414.964 358.712 415.14 358.45 415.399 358.296C415.658 358.143 415.973 358.114 416.255 358.218L415.909 359.157ZM427.56 356.527L426.807 355.868L427.56 356.527ZM429.513 353.036L428.558 352.738C428.67 352.38 428.973 352.115 429.342 352.051C429.712 351.987 430.086 352.135 430.312 352.434L429.513 353.036ZM436.58 358.476L436.182 359.394H436.182L436.58 358.476ZM454.179 354.225L453.262 353.826L454.179 354.225ZM460.88 345.696C459.33 347.746 457.378 349.315 455.221 350.369L454.343 348.573C456.223 347.653 457.928 346.285 459.285 344.49L460.88 345.696ZM458.036 323.959C464.823 329.09 466.074 338.825 460.88 345.696L459.285 344.49C463.832 338.474 462.711 330 456.83 325.554L458.036 323.959ZM436.347 327.15C441.541 320.279 451.248 318.828 458.036 323.959L456.83 325.554C450.949 321.109 442.49 322.341 437.942 328.356L436.347 327.15ZM434.251 330.867C434.767 329.569 435.464 328.318 436.347 327.15L437.942 328.356C437.169 329.379 436.56 330.473 436.11 331.605L434.251 330.867ZM425.04 335.241C427.547 331.925 431.366 330.19 435.193 330.236L435.169 332.236C431.959 332.197 428.748 333.653 426.635 336.448L425.04 335.241ZM424.843 335.509C424.907 335.42 424.973 335.33 425.04 335.241L426.635 336.448C426.579 336.523 426.523 336.598 426.469 336.674L424.843 335.509ZM408.313 330.199C414.611 326.949 422.351 329.444 426.483 335.53L424.828 336.654C421.175 331.273 414.494 329.26 409.23 331.977L408.313 330.199ZM401.367 345.31C400.282 339.228 402.855 333.016 408.313 330.199L409.23 331.977C404.662 334.334 402.382 339.611 403.336 344.959L401.367 345.31ZM402.484 346.126C399.411 346.537 396.353 348.104 394.023 350.766L392.518 349.449C395.164 346.426 398.661 344.619 402.219 344.143L402.484 346.126ZM394.023 350.766C389.236 356.237 389.468 364.041 394.248 368.224L392.931 369.729C387.182 364.699 387.129 355.607 392.518 349.449L394.023 350.766ZM394.248 368.224C399.027 372.407 406.794 371.602 411.581 366.132L413.086 367.449C407.697 373.607 398.679 374.76 392.931 369.729L394.248 368.224ZM411.581 366.132C413.443 364.005 414.55 361.509 414.92 359.01L416.898 359.303C416.472 362.182 415.2 365.033 413.086 367.449L411.581 366.132ZM428.312 357.185C425.14 360.81 420.046 361.75 415.562 360.095L416.255 358.218C420.073 359.628 424.256 358.783 426.807 355.868L428.312 357.185ZM430.468 353.334C430.034 354.725 429.318 356.036 428.312 357.185L426.807 355.868C427.624 354.935 428.205 353.871 428.558 352.738L430.468 353.334ZM436.182 359.394C433.057 358.035 430.492 355.996 428.714 353.638L430.312 352.434C431.87 354.501 434.153 356.331 436.979 357.559L436.182 359.394ZM455.096 354.623C453.742 357.738 450.873 359.763 447.457 360.588C444.042 361.413 440.021 361.062 436.182 359.394L436.979 357.559C440.456 359.071 444.033 359.358 446.988 358.644C449.941 357.931 452.213 356.24 453.262 353.826L455.096 354.623ZM455.772 349.329C456.028 351.122 455.831 352.932 455.096 354.623L453.262 353.826C453.837 352.503 454.001 351.071 453.792 349.613L455.772 349.329Z" fill="#083156"/><path opacity="0.1" d="M435.159 336.996C435.287 334.119 436.265 331.237 438.144 328.751C440.303 325.895 443.29 324.041 446.499 323.279" stroke="#083156" stroke-width="8" stroke-linecap="round"/><path opacity="0.1" d="M454.873 349.501C454.917 350.778 454.696 352.038 454.179 353.228C451.776 358.756 443.897 360.659 436.58 357.479C431.888 355.44 428.566 351.805 427.421 348.001" stroke="#083156" stroke-width="8" stroke-linecap="round"/><path opacity="0.1" d="M404.821 349.454C401.954 343.899 402.836 337.482 406.578 333.5" stroke="#083156" stroke-width="8" stroke-linecap="round"/><ellipse cx="3.87019" cy="5.16026" rx="3.87019" ry="5.16026" transform="matrix(-0.574239 -0.818688 -0.818688 0.574239 472.998 359.57)" fill="white" stroke="#083156" stroke-width="2" stroke-linecap="round" stroke-linejoin="round"/><ellipse cx="5.14382" cy="6.85842" rx="5.14382" ry="6.85842" transform="matrix(-0.869927 -0.49318 -0.49318 0.869927 460.957 305.848)" fill="white" stroke="#083156" stroke-width="2" stroke-linecap="round" stroke-linejoin="round"/><path d="M454.793 349.718C454.034 345.673 452.265 343.65 450.495 342.133" stroke="#083156" stroke-width="2" stroke-linecap="round" stroke-linejoin="round"/><path d="M426.707 334.852C425.417 336.142 424.127 339.152 424.127 341.732" stroke="#083156" stroke-width="2" stroke-linecap="round" stroke-linejoin="round"/><rect opacity="0.12" width="32" height="10" rx="3" transform="matrix(-1 0 0 1 417.998 357)" fill="#083156"/><path fill-rule="evenodd" clip-rule="evenodd" d="M422.493 365.281C422.493 364.163 421.587 363.258 420.47 363.258H380.023C378.906 363.258 378 364.163 378 365.281V383.914C378 387.812 379.222 391.613 381.493 394.781C384.996 399.667 390.639 402.565 396.651 402.565H403.842C409.854 402.565 415.497 399.667 419 394.781C420.069 393.289 420.906 391.657 421.492 389.941C421.903 389.98 422.319 390 422.739 390C429.282 390 434.999 385.072 434.999 378.5C434.999 371.928 429.282 367 422.739 367C422.657 367 422.575 367.001 422.493 367.002V365.281ZM422.493 371.512C422.575 371.509 422.657 371.508 422.739 371.508C427.305 371.508 430.593 374.86 430.593 378.5C430.593 382.14 427.305 385.492 422.739 385.492C422.634 385.492 422.53 385.49 422.427 385.486C422.471 384.965 422.493 384.44 422.493 383.914V371.512Z" fill="#083156"/><path d="M382.903 367.484C382.903 367.484 382.903 379.178 382.903 386.585C382.903 393.991 389.92 402.567 397.716 402.567" stroke="white" stroke-width="2" stroke-linecap="round" stroke-linejoin="round"/><path opacity="0.1" d="M413.999 401C413.999 398.239 411.76 396 408.999 396H386.142C384.958 396 383.999 396.959 383.999 398.143C383.999 402.482 387.517 406 391.856 406H408.999C411.76 406 413.999 403.761 413.999 401Z" fill="#083156"/><path d="M216.853 291.972C228.46 233.594 310.574 227.924 271.036 283.765L254.77 335.007L213.177 328.798C210.814 328.445 209.246 326.162 209.765 323.829L216.853 291.972Z" fill="#083156"/><path d="M363.535 287.723C349.462 233.058 267.237 227.62 309.059 281.772L327.438 332.294L368.737 324.364C371.083 323.914 372.555 321.567 371.94 319.258L363.535 287.723Z" fill="#083156"/><rect opacity="0.15" x="242.654" y="389.23" width="98.0366" height="14.9522" rx="5" fill="#083156"/><path d="M238.697 310.631C238.697 276.962 261.683 252.317 288.658 245.849C289.91 245.549 291.216 245.986 292.078 246.943C292.767 247.708 293.752 248.136 294.781 248.174C322.744 249.203 345.149 276.772 345.149 310.631L352.988 385.702C352.988 391.769 349.313 396.687 344.78 396.687H239.067C234.534 396.687 230.859 391.769 230.859 385.702L238.697 310.631Z" fill="#083156"/><path d="M215.001 319.995C216.999 307.995 220.728 291.995 221.499 289.577C231.118 259.419 251.999 250.496 263.999 248.866" stroke="white" stroke-width="2" stroke-linecap="round"/><path fill-rule="evenodd" clip-rule="evenodd" d="M257.141 398.684C257.141 394.818 260.275 391.684 264.141 391.684L378.663 391.684C391.918 391.684 402.663 402.429 402.663 415.684L402.663 421.001C402.663 434.256 391.918 445.001 378.663 445.001L264.141 445.001C260.275 445.001 257.141 441.867 257.141 438.001L257.141 398.684Z" fill="#FFE999"/><path opacity="0.5" d="M263.287 433.979C263.303 431.746 263.311 430.629 263.57 429.716C264.243 427.347 266.111 425.506 268.489 424.868C269.406 424.622 270.523 424.63 272.756 424.646L382.839 425.44C383.782 425.446 384.253 425.45 384.644 425.532C386.22 425.862 387.444 427.104 387.751 428.684C387.827 429.076 387.824 429.547 387.817 430.49C387.798 433.081 387.789 434.377 387.564 435.453C386.657 439.786 383.241 443.153 378.895 443.997C377.817 444.207 376.521 444.198 373.929 444.179L272.62 443.448C270.387 443.432 269.27 443.424 268.357 443.165C265.988 442.492 264.147 440.624 263.509 438.246C263.263 437.33 263.271 436.213 263.287 433.979Z" fill="#FFAA00"/><path fill-rule="evenodd" clip-rule="evenodd" d="M257.141 405.684C257.141 399.084 257.141 395.784 259.191 393.734C261.241 391.684 264.541 391.684 271.141 391.684L376.005 391.684C378.474 391.684 379.708 391.684 380.749 391.774C392.357 392.787 401.56 401.99 402.573 413.598C402.663 414.639 402.663 415.873 402.663 418.342V418.342C402.663 420.811 402.663 422.046 402.573 423.087C401.56 434.694 392.357 443.898 380.749 444.91C379.708 445.001 378.474 445.001 376.005 445.001L271.141 445.001C264.541 445.001 261.241 445.001 259.191 442.951C257.141 440.901 257.141 437.601 257.141 431.001L257.141 405.684Z" stroke="#083156" stroke-width="2.5"/><path d="M347.87 454.188C343.436 455.715 338.603 453.358 337.076 448.924L325.38 414.955C323.853 410.52 326.21 405.688 330.644 404.161C335.079 402.634 339.911 404.991 341.438 409.425L353.135 443.395C354.662 447.829 352.305 452.662 347.87 454.188Z" fill="#083156" stroke="#083156" stroke-width="2"/><path fill-rule="evenodd" clip-rule="evenodd" d="M328.922 398.684C328.922 394.818 325.788 391.684 321.922 391.684L207.4 391.684C194.145 391.684 183.4 402.429 183.4 415.684L183.4 421.001C183.4 434.256 194.145 445.001 207.4 445.001L321.922 445.001C325.788 445.001 328.922 441.867 328.922 438.001L328.922 398.684Z" fill="#FFE999"/><path d="M323.492 395.241C324.182 395.239 324.74 394.678 324.738 393.988C324.737 393.298 324.176 392.74 323.485 392.741L323.492 395.241ZM208.457 394.279L208.46 395.529L208.457 394.279ZM206.463 394.3L206.512 395.549L206.463 394.3ZM323.485 392.741L208.454 393.029L208.46 395.529L323.492 395.241L323.485 392.741ZM208.454 393.029C207.428 393.032 206.881 393.033 206.414 393.051L206.512 395.549C206.922 395.533 207.412 395.532 208.46 395.529L208.454 393.029ZM184.651 419.398C184.651 418.35 184.651 417.86 184.666 417.45L182.167 417.358C182.15 417.826 182.151 418.372 182.151 419.398L184.651 419.398ZM206.414 393.051C193.219 393.567 182.65 404.162 182.167 417.358L184.666 417.45C185.101 405.56 194.623 396.014 206.512 395.549L206.414 393.051Z" fill="white"/><path opacity="0.5" d="M197.112 429.592C197.118 428.65 197.122 428.178 197.204 427.787C197.533 426.212 198.776 424.987 200.356 424.68C200.748 424.604 201.219 424.607 202.162 424.614L319.721 425.462C321.954 425.478 323.071 425.486 323.984 425.745C326.353 426.418 328.194 428.286 328.832 430.664C329.078 431.581 329.07 432.697 329.054 434.931C329.038 437.164 329.03 438.281 328.771 439.194C328.098 441.563 326.23 443.404 323.852 444.043C322.935 444.289 321.819 444.281 319.585 444.264L210.801 443.48C208.209 443.461 206.913 443.452 205.838 443.227C201.505 442.32 198.138 438.904 197.293 434.558C197.084 433.48 197.093 432.184 197.112 429.592Z" fill="#FFAA00"/><path fill-rule="evenodd" clip-rule="evenodd" d="M328.922 405.684C328.922 399.084 328.922 395.784 326.872 393.734C324.822 391.684 321.522 391.684 314.922 391.684L210.058 391.684C207.589 391.684 206.355 391.684 205.314 391.774C193.707 392.787 184.503 401.99 183.491 413.598C183.4 414.639 183.4 415.873 183.4 418.342V418.342C183.4 420.811 183.4 422.046 183.491 423.087C184.503 434.694 193.707 443.898 205.314 444.91C206.355 445.001 207.589 445.001 210.058 445.001L314.922 445.001C321.522 445.001 324.822 445.001 326.872 442.951C328.922 440.901 328.922 437.601 328.922 431.001L328.922 405.684Z" stroke="#083156" stroke-width="2.5"/><path fill-rule="evenodd" clip-rule="evenodd" d="M226.554 311.895C225.29 322.054 232.5 331.315 242.659 332.579L351.592 346.14C361.751 347.404 371.011 340.194 372.276 330.035C373.541 319.876 366.33 310.616 356.172 309.351L247.238 295.791C237.079 294.526 227.819 301.737 226.554 311.895Z" fill="#C7A185" stroke="#083156" stroke-width="2.5"/><circle cx="238.698" cy="308.88" r="20.9036" fill="#C7A185" stroke="#083156" stroke-width="2.5"/><path fill-rule="evenodd" clip-rule="evenodd" d="M290.875 193.578C303.387 193.578 313.53 202.247 313.53 212.94V248.181C313.53 258.874 303.387 267.543 290.875 267.543C278.363 267.543 268.22 258.874 268.22 248.181V212.94C268.22 202.247 278.363 193.578 290.875 193.578Z" fill="#C7A185" stroke="#083156" stroke-width="2.5" stroke-linecap="round"/><path d="M280.698 99.9844C247.774 99.9844 221.083 126.675 221.083 159.599V169.256C213.02 170.072 206.726 176.881 206.726 185.16C206.726 193.988 213.883 201.145 222.711 201.145H223.453C227.898 222.634 239.282 238.866 263.178 238.866H315.613C343.182 238.866 354.948 222.626 359.326 201.128C367.809 200.739 374.568 193.739 374.568 185.16C374.568 177.355 368.975 170.857 361.578 169.455V159.599C361.578 126.675 334.888 99.9844 301.964 99.9844H280.698Z" fill="#C7A185" stroke="#083156" stroke-width="2.5"/><path d="M285.849 185.645C276.39 187.746 272.186 192.16 273.237 197.205C273.728 200.007 276.811 205.444 285.218 204.772" stroke="#083156" stroke-width="2.5" stroke-linecap="round"/><path d="M331.01 170.302C331.01 179.836 323.281 182.069 313.747 182.069C304.213 182.069 296.484 179.836 296.484 170.302C296.484 160.768 304.213 153.039 313.747 153.039C323.281 153.039 331.01 160.768 331.01 170.302Z" fill="white"/><path d="M277.653 170.302C277.653 179.836 269.924 182.069 260.389 182.069C250.855 182.069 243.126 179.836 243.126 170.302C243.126 160.768 250.855 153.039 260.389 153.039C269.924 153.039 277.653 160.768 277.653 170.302Z" fill="white"/><path d="M315.776 167.1C309.771 164.893 308.336 159.307 311.385 155.779C314.433 152.251 321.152 155.738 324.969 159.427C329.004 163.314 330.497 168.49 327.448 172.018C324.4 175.546 319.45 172.938 315.776 167.1Z" fill="#083156"/><path d="M263.242 167.173C257.198 165.077 255.66 159.518 258.643 155.935C261.626 152.351 268.407 155.714 272.292 159.332C276.398 163.144 277.986 168.291 275.003 171.874C272.021 175.458 267.023 172.942 263.242 167.173Z" fill="#083156"/><path d="M296.789 175.966C293.965 147.937 330.868 144.463 330.636 174.248" stroke="#083156" stroke-width="2.5" stroke-linecap="round"/><path d="M243.898 175.966C241.075 147.937 277.977 144.463 277.746 174.248" stroke="#083156" stroke-width="2.5" stroke-linecap="round"/><path fill-rule="evenodd" clip-rule="evenodd" d="M196.074 114.901C196.623 122.838 202.29 128.912 209.525 130.375L204.716 133.543C182.107 155.118 211.533 184.941 233.321 168.542L317.085 108.33C328.788 100.62 327.428 85.6156 320.223 77.4458C295.045 48.8957 192.936 69.4791 196.074 114.901Z" fill="#E1E1E1"/><path fill-rule="evenodd" clip-rule="evenodd" d="M196.074 114.901C196.623 122.838 202.29 128.912 209.525 130.375L204.716 133.543C182.107 155.118 211.533 184.941 233.321 168.542L317.085 108.33C328.788 100.62 327.428 85.6156 320.223 77.4458C295.045 48.8957 192.936 69.4791 196.074 114.901Z" fill="#E1E1E1"/><path fill-rule="evenodd" clip-rule="evenodd" d="M196.074 114.901C196.623 122.838 202.29 128.912 209.525 130.375L204.716 133.543C182.107 155.118 211.533 184.941 233.321 168.542L317.085 108.33C328.788 100.62 327.428 85.6156 320.223 77.4458C295.045 48.8957 192.936 69.4791 196.074 114.901Z" fill="#BFBFBF"/><path fill-rule="evenodd" clip-rule="evenodd" d="M196.074 114.901C196.623 122.838 202.29 128.912 209.525 130.375L204.716 133.543C182.107 155.118 211.533 184.941 233.321 168.542L317.085 108.33C328.788 100.62 327.428 85.6156 320.223 77.4458C295.045 48.8957 192.936 69.4791 196.074 114.901Z" fill="#898989"/><path fill-rule="evenodd" clip-rule="evenodd" d="M196.074 114.901C196.623 122.838 202.29 128.912 209.525 130.375L204.716 133.543C182.107 155.118 211.533 184.941 233.321 168.542L317.085 108.33C328.788 100.62 327.428 85.6156 320.223 77.4458C295.045 48.8957 192.936 69.4791 196.074 114.901Z" fill="#898989"/><path fill-rule="evenodd" clip-rule="evenodd" d="M196.074 114.901C196.623 122.838 202.29 128.912 209.525 130.375L204.716 133.543C182.107 155.118 211.533 184.941 233.321 168.542L317.085 108.33C328.788 100.62 327.428 85.6156 320.223 77.4458C295.045 48.8957 192.936 69.4791 196.074 114.901Z" fill="#083156"/><path fill-rule="evenodd" clip-rule="evenodd" d="M361.574 169.743C355.502 167.218 350.539 162.874 346.842 159.01C341.904 153.85 337.35 147.533 333.374 141.242C325.398 128.626 318.636 114.339 314.782 104.934C314.274 103.693 313.942 102.423 313.776 101.152C341.04 106.635 361.574 130.717 361.574 159.596V169.743Z" fill="#083156"/><path d="M291.929 144.199C296.965 140.765 310.884 135.409 326.269 141.452" stroke="#083156" stroke-width="2.5" stroke-linecap="round"/><path d="M311.581 207.391C307.284 208.166 300.752 210.779 296.525 215.684" stroke="#083156" stroke-width="2.5" stroke-linecap="round"/><path d="M335.047 240.118C336.462 241.218 337.716 242.574 338.737 244.172L346.595 256.469C351.406 263.998 349.203 274.028 341.675 278.871L331.044 285.711C327.046 288.283 322.349 288.875 318.103 287.736L239.029 343.2C230.599 349.113 218.94 346.803 213.401 338.122C208.148 329.89 210.379 318.974 218.442 313.465L298.64 258.663L298.64 255.255L298.238 246.317C297.996 240.953 302.141 236.395 307.495 236.138C310.451 235.995 313.158 237.194 315.031 239.199C315.1 239.148 315.171 239.098 315.243 239.049C315.298 239.012 333.76 224.988 342.802 218.119C345.497 216.073 349.335 216.608 351.374 219.309C353.36 221.94 352.903 225.673 350.34 227.747L335.047 240.118Z" fill="#C7A185" stroke="#083156" stroke-width="2.5" stroke-linecap="round"/><rect opacity="0.15" x="263.796" y="234.352" width="32.7231" height="12.8506" rx="5" fill="#083156"/><rect opacity="0.15" x="246.818" y="330.227" width="65.7762" height="14.6252" rx="5" transform="rotate(-35.1812 246.818 330.227)" fill="#083156"/><rect opacity="0.15" x="226.388" y="168.047" width="108.23" height="14.6252" rx="7" transform="rotate(-38.824 226.388 168.047)" fill="#083156"/><path opacity="0.15" d="M330.645 398.026L331.211 439.338" stroke="#083156" stroke-width="14" stroke-linecap="round"/><path d="M555.381 445.25H551.645M22.4104 445.25H27.7468M546.309 445.25H530.833M526.03 445.25H35.7515" stroke="#083156" stroke-width="2" stroke-linecap="round"/><path d="M67.5221 438C67.5221 436.895 68.4175 436 69.5221 436H236.522C237.626 436 238.522 436.895 238.522 438V443C238.522 444.105 237.626 445 236.522 445H69.5221C68.4175 445 67.5221 444.105 67.5221 443V438Z" fill="#A8B4C4" stroke="#083156" stroke-width="2"/><path d="M212.521 435C212.521 433.895 213.417 433 214.521 433H221.521C222.626 433 223.521 433.895 223.521 435H212.521Z" fill="#083156"/><path d="M200.521 435C200.521 433.895 201.417 433 202.521 433H209.521C210.626 433 211.521 433.895 211.521 435H200.521Z" fill="#083156"/><path d="M188.521 435C188.521 433.895 189.417 433 190.521 433H197.521C198.626 433 199.521 433.895 199.521 435H188.521Z" fill="#083156"/><path d="M191.521 436V445" stroke="#083156" stroke-width="1.75"/><path d="M44.2697 361.455C43.2929 358.243 45.6962 355 49.0534 355H164.176C166.377 355 168.319 356.439 168.959 358.545L191.337 432.127C191.923 434.054 190.481 436 188.467 436H69.1637C67.8431 436 66.6778 435.136 66.2935 433.873L44.2697 361.455Z" fill="#A8B4C4"/><path d="M167 358L189 431.5" stroke="white" stroke-width="2" stroke-linecap="round"/><path d="M43.8771 360.164C43.0956 357.594 45.0183 355 47.704 355H164.917C166.678 355 168.231 356.151 168.744 357.836L191.73 433.418C192.121 434.703 191.159 436 189.816 436H69.1637C67.8431 436 66.6778 435.136 66.2935 433.873L43.8771 360.164Z" stroke="#083156" stroke-width="2"/><path opacity="0.8" d="M111.956 387.091C112.545 386.475 113.581 386.475 114.334 387.091L115.661 388.175C116.089 388.526 116.63 388.689 117.137 388.622L118.731 388.411C119.636 388.29 120.574 388.906 120.865 389.812L121.328 391.248C121.496 391.772 121.893 392.223 122.403 392.468L123.838 393.16C124.743 393.596 125.218 394.626 124.905 395.473L124.441 396.726C124.261 397.213 124.337 397.787 124.647 398.274L125.444 399.527C125.983 400.374 125.782 401.404 124.993 401.84L123.743 402.532C123.298 402.777 123.021 403.228 122.992 403.752L122.912 405.188C122.861 406.094 122.087 406.71 121.15 406.589L119.5 406.378C118.975 406.311 118.478 406.474 118.142 406.825L117.104 407.909C116.515 408.525 115.48 408.525 114.727 407.909L113.4 406.825C112.971 406.474 112.43 406.311 111.924 406.378L110.33 406.589C109.424 406.71 108.487 406.094 108.195 405.188L107.733 403.752C107.564 403.228 107.168 402.777 106.657 402.532L105.223 401.84C104.317 401.404 103.842 400.374 104.156 399.527L104.62 398.274C104.8 397.787 104.724 397.213 104.413 396.726L103.617 395.473C103.077 394.626 103.278 393.596 104.068 393.16L105.318 392.468C105.763 392.223 106.04 391.772 106.069 391.248L106.149 389.812C106.199 388.906 106.973 388.29 107.911 388.411L109.561 388.622C110.086 388.689 110.583 388.526 110.918 388.175L111.956 387.091Z" fill="#F2F6FB"/><path d="M111.956 387.091C112.545 386.475 113.581 386.475 114.334 387.091L115.661 388.175C116.089 388.526 116.63 388.689 117.137 388.622L118.731 388.411C119.636 388.29 120.574 388.906 120.865 389.812L121.328 391.248C121.496 391.772 121.893 392.223 122.403 392.468L123.838 393.16C124.743 393.596 125.218 394.626 124.905 395.473L124.441 396.726C124.261 397.213 124.337 397.787 124.647 398.274L125.444 399.527C125.983 400.374 125.782 401.404 124.993 401.84L123.743 402.532C123.298 402.777 123.021 403.228 122.992 403.752L122.912 405.188C122.861 406.094 122.087 406.71 121.15 406.589L119.5 406.378C118.975 406.311 118.478 406.474 118.142 406.825L117.104 407.909C116.515 408.525 115.48 408.525 114.727 407.909L113.4 406.825C112.971 406.474 112.43 406.311 111.924 406.378L110.33 406.589C109.424 406.71 108.487 406.094 108.195 405.188L107.733 403.752C107.564 403.228 107.168 402.777 106.657 402.532L105.223 401.84C104.317 401.404 103.842 400.374 104.156 399.527L104.62 398.274C104.8 397.787 104.724 397.213 104.413 396.726L103.617 395.473C103.077 394.626 103.278 393.596 104.068 393.16L105.318 392.468C105.763 392.223 106.04 391.772 106.069 391.248L106.149 389.812C106.199 388.906 106.973 388.29 107.911 388.411L109.561 388.622C110.086 388.689 110.583 388.526 110.918 388.175L111.956 387.091Z" fill="#F2F6FB" stroke="#083156" stroke-width="1.5"/><path opacity="0.2" d="M124.811 395.723L124.44 396.725C124.26 397.213 124.336 397.786 124.646 398.274L125.443 399.526C125.982 400.373 125.782 401.403 124.992 401.84L123.742 402.531C123.297 402.777 123.02 403.227 122.991 403.751L122.911 405.188C122.86 406.094 122.087 406.709 121.149 406.589L119.499 406.377C118.974 406.31 118.477 406.474 118.142 406.824L117.103 407.909C116.514 408.524 115.479 408.524 114.726 407.909L113.399 406.824C112.971 406.474 112.43 406.31 111.923 406.377L110.718 406.537" stroke="#083156" stroke-width="5" stroke-linecap="round"/><rect opacity="0.18" x="75.7969" y="440.352" width="153.723" height="9" rx="3" fill="#083156"/><rect opacity="0.1" x="65.7969" y="428.352" width="74.7231" height="8" rx="3" fill="#083156"/><rect opacity="0.1" x="193.346" y="402.641" width="34.7231" height="10" rx="5" transform="rotate(73 193.346 402.641)" fill="#083156"/></svg>